<svg width="63" height="54" viewBox="0 0 63 54" fill="none" xmlns="http://www.w3.org/2000/svg">
<path d="M13.2393 0.583313L0.791626 11.7913L4.5276 15.9405L16.9753 4.73254L13.2393 0.583313Z" fill="white"/>
<path d="M28.7083 17.3333H34.2916V28.5H42.6666V34.0833H28.7083V17.3333Z" fill="white"/>
<path fill-rule="evenodd" clip-rule="evenodd" d="M6.37496 28.5C6.37496 14.6238 17.6238 3.37498 31.5 3.37498C45.3761 3.37498 56.625 14.6238 56.625 28.5C56.625 42.3761 45.3761 53.625 31.5 53.625C17.6238 53.625 6.37496 42.3761 6.37496 28.5ZM11.9583 28.5C11.9583 17.7074 20.7074 8.95831 31.5 8.95831C42.2925 8.95831 51.0416 17.7074 51.0416 28.5C51.0416 39.2925 42.2925 48.0416 31.5 48.0416C20.7074 48.0416 11.9583 39.2925 11.9583 28.5Z" fill="white"/>
<path d="M49.7606 0.583313L62.2083 11.7913L58.4723 15.9405L46.0246 4.73254L49.7606 0.583313Z" fill="white"/>
</svg>
