<svg width="17" height="17" viewBox="0 0 17 17" fill="none" xmlns="http://www.w3.org/2000/svg">
<g clip-path="url(#clip0)">
<path d="M0.155642 7.85727L6.76246 1.25012C7.72072 0.292197 9.27929 0.292197 10.2375 1.25012L16.8444 7.85727C17.0519 8.06479 17.0519 8.40114 16.8444 8.60867C16.6372 8.81619 16.3005 8.81619 16.0933 8.60867L15.6719 8.18731V14.9409C15.6719 15.7844 14.9881 16.4683 14.1446 16.4683H11.4883C11.3049 16.4683 11.1563 16.3196 11.1563 16.1362V11.2221C11.1563 10.3052 10.413 9.56194 9.4961 9.56194H7.5039C6.58702 9.56194 5.84373 10.3052 5.84373 11.2221V16.1362C5.84373 16.3196 5.69507 16.4683 5.51169 16.4683H2.85542C2.01188 16.4683 1.32806 15.7844 1.32806 14.9409V8.18731L0.906705 8.60867C0.80311 8.71226 0.666976 8.76439 0.531174 8.76439C0.395372 8.76439 0.259237 8.71226 0.155642 8.60867C-0.0518792 8.40114 -0.0518792 8.06479 0.155642 7.85727V7.85727Z" fill="white"/>
</g>
<defs>
<clipPath id="clip0">
<rect width="17" height="17" fill="white" transform="matrix(-1 0 0 1 17 0)"/>
</clipPath>
</defs>
</svg>
