<svg width="412" height="551" viewBox="0 0 412 551" fill="none" xmlns="http://www.w3.org/2000/svg">
<g clip-path="url(#clip0)">
<path d="M412.821 0H0.133972V551.62H412.821V0Z" fill="#5A37BC"/>
<path style="mix-blend-mode:screen" opacity="0.7" d="M411.397 213.6C411.397 211.49 403.928 209.782 394.482 209.631C394.482 209.631 394.482 209.514 394.482 209.464C394.536 207.709 393.9 206.003 392.71 204.713C391.52 203.422 389.871 202.651 388.117 202.564C386.737 202.565 385.4 203.045 384.332 203.92V203.836C383.773 200.198 381.961 196.868 379.21 194.422C376.458 191.976 372.939 190.567 369.259 190.438C368.014 190.442 366.775 190.611 365.575 190.941C364.893 189.196 363.711 187.692 362.176 186.619C360.64 185.546 358.822 184.952 356.949 184.912C355.602 184.913 354.271 185.214 353.055 185.793C351.838 186.373 350.766 187.216 349.915 188.261C348.99 186.752 347.699 185.501 346.162 184.623C344.626 183.745 342.892 183.268 341.123 183.237C340.6 183.245 340.079 183.295 339.565 183.388C339.943 181.938 340.134 180.447 340.134 178.949C340.134 169.705 333.234 162.202 324.726 162.202C322.572 162.22 320.448 162.707 318.501 163.63C316.555 164.552 314.833 165.888 313.455 167.544C312.522 165.043 310.862 162.878 308.69 161.326C306.518 159.774 303.931 158.907 301.262 158.835C298.991 158.867 296.767 159.49 294.811 160.645C292.855 161.799 291.234 163.444 290.108 165.417C289.351 164.045 288.244 162.897 286.9 162.091C285.556 161.285 284.022 160.849 282.455 160.828C281.584 160.826 280.719 160.961 279.892 161.23C278.989 159.185 277.519 157.44 275.656 156.202C273.794 154.965 271.616 154.286 269.38 154.245C267.144 154.205 264.943 154.804 263.037 155.974C261.131 157.143 259.599 158.834 258.622 160.845H258.053C256.429 160.886 254.847 161.37 253.478 162.243C252.108 163.117 251.003 164.347 250.282 165.802C248.903 164.335 247.24 163.162 245.395 162.356C243.55 161.55 241.56 161.127 239.546 161.113C237.331 161.138 235.149 161.65 233.154 162.614C231.16 163.578 229.402 164.97 228.007 166.69C223.977 163.469 218.98 161.699 213.821 161.666C210.279 161.712 206.793 162.56 203.625 164.147C200.458 165.733 197.691 168.017 195.533 170.827C193.74 169.965 191.777 169.513 189.788 169.504C181.983 169.504 175.653 176.37 175.653 184.845C175.653 185.163 175.653 185.481 175.653 185.782C174.905 185.575 174.134 185.468 173.358 185.464C171.659 185.494 170.003 186.005 168.583 186.939C167.162 187.873 166.037 189.191 165.336 190.74C163.47 189.666 161.359 189.089 159.206 189.065C156.349 189.141 153.588 190.109 151.309 191.833C149.029 193.557 147.346 195.95 146.494 198.678C146.117 198.625 145.737 198.597 145.356 198.594C143.323 198.67 141.392 199.498 139.937 200.919C138.482 202.34 137.607 204.252 137.484 206.282H137.166C135.934 206.313 134.748 206.76 133.802 207.551C132.857 208.341 132.206 209.429 131.957 210.636C131.354 210.636 130.735 210.636 130.098 210.636C124.99 210.636 120.719 212.076 119.447 213.986H118.207C112.128 213.986 107.187 216.046 107.187 218.591C107.187 221.137 112.211 223.18 118.207 223.18C118.994 223.18 119.765 223.18 120.502 223.08C122.31 224.604 126.045 225.642 130.366 225.642H131.622C131.828 226.835 132.441 227.92 133.357 228.711C134.274 229.502 135.436 229.951 136.647 229.98C137.218 229.989 137.786 229.893 138.321 229.695C139.16 230.989 140.305 232.056 141.655 232.801C143.004 233.546 144.517 233.946 146.059 233.966C147.609 233.959 149.131 233.555 150.481 232.793C151.18 233.555 152.031 234.163 152.978 234.58C153.925 234.996 154.948 235.211 155.982 235.211C157.017 235.211 158.04 234.996 158.987 234.58C159.934 234.163 160.784 233.555 161.484 232.793C162.692 234.478 164.28 235.854 166.119 236.811C167.958 237.768 169.996 238.279 172.069 238.303C173.769 238.296 175.451 237.951 177.018 237.29C178.584 236.629 180.004 235.664 181.196 234.451C181.712 235.745 182.596 236.859 183.74 237.654C184.883 238.449 186.235 238.89 187.628 238.923C188.863 238.903 190.072 238.554 191.128 237.912C192.185 237.27 193.052 236.359 193.64 235.272C195.955 236.809 198.711 237.541 201.483 237.356C204.256 237.172 206.89 236.08 208.981 234.25C209.602 235.024 210.387 235.65 211.279 236.083C212.172 236.517 213.149 236.746 214.141 236.756C215.133 236.766 216.114 236.555 217.015 236.139C217.915 235.723 218.712 235.112 219.348 234.351C220.281 235.997 221.628 237.37 223.256 238.333C224.883 239.297 226.735 239.818 228.627 239.844C230.11 239.832 231.574 239.508 232.925 238.894C234.275 238.279 235.481 237.388 236.465 236.277C240.747 239.662 246.08 241.44 251.538 241.301C258.924 241.301 265.372 238.32 268.855 233.865C269.863 235.758 271.359 237.346 273.188 238.465C275.016 239.585 277.112 240.194 279.256 240.229C280.684 240.228 282.099 239.955 283.426 239.425C284.167 240.863 285.29 242.069 286.671 242.91C288.052 243.752 289.638 244.197 291.256 244.197C292.873 244.197 294.459 243.752 295.84 242.91C297.221 242.069 298.344 240.863 299.085 239.425C302.761 242.378 307.333 243.99 312.048 243.998C315.728 243.952 319.336 242.967 322.528 241.135C325.72 239.303 328.391 236.685 330.287 233.53C331.49 234.966 332.999 236.114 334.704 236.891C336.409 237.667 338.266 238.051 340.139 238.016C342.012 237.981 343.853 237.526 345.527 236.686C347.202 235.846 348.667 234.642 349.815 233.162C350.768 233.561 351.795 233.755 352.829 233.729C353.862 233.703 354.879 233.458 355.811 233.011C358.69 233.904 361.689 234.35 364.704 234.334C373.932 234.334 381.452 230.449 382.708 225.408H383.16C384.208 225.394 385.236 225.115 386.147 224.597C387.057 224.078 387.822 223.337 388.369 222.443C389.279 222.972 390.314 223.249 391.367 223.247C392.93 223.197 394.424 222.585 395.574 221.524C396.724 220.463 397.454 219.024 397.63 217.469C405.435 217.05 411.397 215.493 411.397 213.6Z" fill="url(#paint0_linear)"/>
<path d="M196.822 227.334C195.346 227.082 193.846 226.992 192.35 227.066C192.091 226.444 191.65 225.914 191.086 225.547C190.521 225.179 189.859 224.991 189.185 225.006C188.521 224.895 187.84 224.997 187.238 225.298C186.636 225.599 186.145 226.083 185.835 226.68C185.491 226.31 185.074 226.014 184.61 225.812C184.146 225.61 183.645 225.507 183.139 225.508C182.207 225.511 181.311 225.864 180.627 226.496C180.239 225.953 179.74 225.498 179.162 225.163C178.584 224.828 177.942 224.62 177.277 224.553C177.056 223.888 176.632 223.308 176.064 222.897C175.496 222.485 174.813 222.262 174.112 222.259C173.613 222.265 173.122 222.379 172.672 222.594C172.217 221.783 171.588 221.084 170.83 220.546C170.072 220.008 169.203 219.646 168.288 219.486C167.372 219.326 166.432 219.371 165.537 219.619C164.641 219.867 163.811 220.311 163.108 220.919C161.564 219.755 159.683 219.126 157.749 219.127C156.508 219.124 155.28 219.387 154.148 219.898C153.957 218.389 153.222 217.003 152.081 215.998C150.94 214.992 149.472 214.438 147.952 214.438C147.507 214.439 147.064 214.484 146.628 214.572V214.371C146.631 213.548 146.47 212.732 146.156 211.971C145.842 211.21 145.381 210.519 144.799 209.937C144.217 209.355 143.525 208.893 142.764 208.579C142.003 208.265 141.188 208.105 140.365 208.107C139.914 208.107 139.464 208.157 139.025 208.258C138.403 205.947 137.23 203.821 135.606 202.063C133.982 200.305 131.955 198.968 129.7 198.166C127.445 197.364 125.03 197.121 122.66 197.458C120.291 197.795 118.038 198.702 116.097 200.102C115.878 198.022 115.062 196.049 113.749 194.422C112.435 192.795 110.679 191.582 108.692 190.929C106.705 190.276 104.571 190.211 102.548 190.742C100.526 191.273 98.6991 192.377 97.2889 193.922C96.9898 190.397 95.734 187.022 93.6572 184.158C91.5803 181.295 88.7612 179.053 85.5038 177.674C82.2464 176.296 78.6744 175.832 75.1731 176.334C71.6717 176.837 68.3739 178.285 65.6353 180.524C62.7701 176.505 58.7951 173.41 54.1972 171.616C49.5994 169.823 44.5782 169.409 39.7488 170.425C34.9193 171.442 30.4912 173.845 27.0068 177.34C23.5224 180.835 21.1329 185.271 20.1311 190.103C18.3574 189.584 16.5192 189.319 14.6712 189.316C9.78688 189.286 5.06395 191.063 1.41209 194.307C-2.23978 197.551 -4.56229 202.031 -5.10813 206.885C-6.32051 206.466 -7.59381 206.251 -8.87642 206.248C-10.9175 206.243 -12.9234 206.779 -14.689 207.803C-16.4546 208.827 -17.9165 210.302 -18.9252 212.076C-20.1629 211.699 -21.4497 211.507 -22.7437 211.507C-24.9833 211.507 -27.1877 212.064 -29.1583 213.128C-31.1289 214.193 -32.8037 215.73 -34.0319 217.603C-34.9811 216.96 -36.101 216.616 -37.2475 216.615C-38.4934 216.619 -39.7046 217.025 -40.7006 217.774C-41.6966 218.522 -42.424 219.573 -42.7743 220.768C-43.3052 220.546 -43.8736 220.427 -44.4491 220.417C-45.3689 220.422 -46.2627 220.722 -46.9986 221.274C-47.7345 221.826 -48.2733 222.6 -48.5356 223.482C-49.1954 223.613 -49.82 223.882 -50.3684 224.272C-50.9168 224.662 -51.3766 225.163 -51.7177 225.743H-51.7847C-52.2907 225.741 -52.7915 225.845 -53.2555 226.047C-53.7196 226.248 -54.1369 226.544 -54.4811 226.915C-54.8041 226.306 -55.3125 225.815 -55.9327 225.514C-56.5529 225.213 -57.2528 225.117 -57.9312 225.24C-58.602 225.229 -59.2607 225.419 -59.8221 225.786C-60.3835 226.153 -60.8216 226.681 -61.0798 227.3C-62.5756 227.235 -64.0742 227.325 -65.5515 227.568C-69.2528 228.137 -72.1335 229.343 -71.9995 230.264C-71.8655 231.186 -69.3533 231.386 -66.1712 231.035C-65.05 231.76 -63.7378 232.133 -62.4029 232.107C-61.1688 232.19 -59.9329 231.971 -58.8021 231.47C-58.5268 231.809 -58.1796 232.082 -57.7857 232.271C-57.3918 232.459 -56.961 232.557 -56.5244 232.559C-55.8051 232.56 -55.1116 232.291 -54.5816 231.805C-54.2361 232.209 -53.8072 232.534 -53.3244 232.756C-52.8416 232.979 -52.3163 233.094 -51.7847 233.095C-51.0577 233.092 -50.3473 232.877 -49.7415 232.475C-49.0512 232.846 -48.2806 233.041 -47.4972 233.045C-46.8344 233.041 -46.1791 232.903 -45.5715 232.638C-44.9639 232.373 -44.4167 231.987 -43.9634 231.504C-43.4252 232.188 -42.7385 232.741 -41.9551 233.121C-41.1717 233.502 -40.3122 233.699 -39.4415 233.698C-38.5035 233.686 -37.5826 233.445 -36.7593 232.995C-35.936 232.546 -35.2353 231.901 -34.7185 231.119C-33.5964 233.338 -31.8788 235.201 -29.7581 236.499C-27.6373 237.798 -25.197 238.48 -22.7102 238.471C-20.7004 238.472 -18.7159 238.021 -16.904 237.151C-15.092 236.282 -13.4989 235.015 -12.2428 233.446C-11.3556 235.625 -9.84047 237.491 -7.89003 238.806C-5.93959 240.121 -3.64203 240.826 -1.28959 240.832C1.24403 240.827 3.70953 240.011 5.74651 238.505C7.7835 236.998 9.28517 234.879 10.032 232.458C10.8346 234.587 12.2336 236.44 14.0615 237.794C15.8894 239.149 18.0689 239.948 20.3393 240.097C22.6096 240.245 24.8746 239.736 26.8633 238.631C28.852 237.526 30.4803 235.871 31.5532 233.865C33.1089 236.445 35.2343 238.634 37.7666 240.266C40.2988 241.898 43.1709 242.928 46.1628 243.279C49.1548 243.63 52.1873 243.291 55.0283 242.289C57.8693 241.288 60.4434 239.649 62.5537 237.499C63.5811 239.157 64.9825 240.552 66.6455 241.571C68.3086 242.59 70.1871 243.205 72.1308 243.368C74.0745 243.531 76.0292 243.236 77.8386 242.508C79.648 241.78 81.2618 240.638 82.5507 239.174C86.8406 242.875 92.4229 244.724 98.0739 244.316C103.725 243.908 108.983 241.276 112.697 236.997C114.188 238.195 115.907 239.079 117.749 239.593C119.591 240.108 121.519 240.243 123.415 239.991C125.311 239.739 127.137 239.105 128.781 238.127C130.425 237.149 131.853 235.847 132.979 234.301C134.132 235.457 135.532 236.337 137.073 236.877C138.614 237.417 140.258 237.602 141.88 237.418C143.503 237.235 145.064 236.688 146.445 235.817C147.827 234.947 148.995 233.776 149.861 232.391C150.562 233.592 151.534 234.612 152.7 235.369C153.866 236.127 155.193 236.601 156.574 236.754C157.956 236.907 159.355 236.735 160.658 236.25C161.961 235.766 163.133 234.984 164.08 233.966C164.774 234.502 165.574 234.884 166.428 235.086C167.281 235.288 168.168 235.306 169.029 235.138C169.89 234.97 170.705 234.62 171.42 234.112C172.134 233.603 172.733 232.948 173.174 232.19C173.608 232.687 174.144 233.084 174.745 233.356C175.346 233.628 175.998 233.767 176.658 233.765C177.408 233.765 178.148 233.586 178.815 233.242C179.482 232.898 180.057 232.4 180.493 231.788C181.177 232.421 182.073 232.774 183.005 232.777C183.533 232.777 184.054 232.663 184.534 232.444C185.014 232.224 185.441 231.903 185.785 231.504C186.328 231.978 187.024 232.24 187.745 232.241C188.181 232.24 188.613 232.142 189.007 231.954C189.401 231.766 189.748 231.492 190.022 231.152C191.144 231.663 192.377 231.882 193.607 231.788C194.945 231.823 196.264 231.455 197.392 230.733C200.574 231.085 203.086 230.733 203.22 229.963C203.354 229.193 200.523 227.903 196.822 227.334Z" fill="white"/>
<path style="mix-blend-mode:screen" opacity="0.5" d="M162.087 183.086C160.647 182.856 159.189 182.772 157.732 182.835C157.49 182.222 157.063 181.699 156.511 181.339C155.959 180.979 155.309 180.8 154.651 180.825C153.999 180.699 153.325 180.781 152.724 181.061C152.122 181.341 151.624 181.803 151.301 182.383C150.963 182.025 150.555 181.739 150.103 181.543C149.651 181.347 149.164 181.246 148.672 181.244C147.758 181.243 146.877 181.591 146.21 182.215C145.825 181.673 145.325 181.222 144.746 180.895C144.167 180.568 143.523 180.372 142.86 180.323C142.635 179.677 142.217 179.116 141.663 178.715C141.109 178.314 140.446 178.092 139.762 178.078C139.279 178.084 138.804 178.199 138.372 178.413C137.932 177.617 137.32 176.929 136.581 176.399C135.842 175.869 134.993 175.51 134.098 175.35C133.203 175.19 132.283 175.231 131.405 175.471C130.528 175.711 129.715 176.144 129.026 176.739C127.514 175.625 125.679 175.037 123.801 175.064C122.588 175.061 121.389 175.318 120.284 175.818C120.096 174.343 119.376 172.989 118.26 172.008C117.143 171.027 115.707 170.488 114.221 170.492C113.787 170.486 113.355 170.531 112.932 170.626V170.475C112.932 168.854 112.287 167.299 111.141 166.153C109.995 165.006 108.44 164.362 106.819 164.362C106.374 164.37 105.931 164.42 105.495 164.513C104.891 162.256 103.747 160.18 102.162 158.463C100.577 156.747 98.5988 155.441 96.3974 154.658C94.196 153.875 91.8373 153.639 89.5245 153.97C87.2116 154.301 85.0138 155.189 83.1202 156.558C82.9093 154.518 82.1123 152.583 80.8256 150.987C79.5389 149.39 77.8175 148.201 75.8692 147.561C73.921 146.922 71.8293 146.86 69.8468 147.384C67.8643 147.907 66.0758 148.994 64.6974 150.512C64.3911 147.079 63.1547 143.794 61.1211 141.011C59.0875 138.228 56.3337 136.052 53.1559 134.717C49.9781 133.382 46.4965 132.939 43.0855 133.435C39.6746 133.931 36.4634 135.348 33.7974 137.532C30.9982 133.623 27.1215 130.612 22.6404 128.868C18.1592 127.124 13.2674 126.722 8.56166 127.711C3.85594 128.7 -0.460162 131.038 -3.86001 134.438C-7.25987 137.838 -9.59646 142.155 -10.5847 146.861C-12.3153 146.357 -14.108 146.097 -15.9106 146.09C-20.6327 146.099 -25.1875 147.84 -28.7124 150.982C-32.2373 154.124 -34.4875 158.45 -35.0368 163.14C-36.2206 162.723 -37.4661 162.507 -38.7213 162.503C-40.7096 162.502 -42.6626 163.029 -44.3809 164.029C-46.0992 165.029 -47.5213 166.468 -48.5021 168.197C-49.714 167.835 -50.9719 167.648 -52.2369 167.645C-54.4222 167.647 -56.5727 168.192 -58.4959 169.229C-60.4192 170.267 -62.055 171.765 -63.2571 173.59C-64.182 172.966 -65.273 172.633 -66.3889 172.635C-67.6216 172.618 -68.8259 173.005 -69.8178 173.737C-70.8098 174.469 -71.5349 175.506 -71.8823 176.688C-72.4112 176.46 -72.9808 176.34 -73.5571 176.337C-74.4558 176.34 -75.3294 176.634 -76.0476 177.174C-76.7659 177.714 -77.2904 178.472 -77.5431 179.335C-78.1888 179.463 -78.8 179.726 -79.3369 180.107C-79.8737 180.488 -80.324 180.978 -80.6582 181.545H-80.7922C-81.2878 181.544 -81.7784 181.644 -82.2335 181.84C-82.6887 182.036 -83.0988 182.323 -83.4384 182.684C-83.7555 182.099 -84.2524 181.632 -84.8557 181.352C-85.4589 181.071 -86.1364 180.992 -86.788 181.127C-87.447 181.099 -88.0983 181.277 -88.6507 181.638C-89.2032 181.998 -89.6294 182.522 -89.8696 183.136C-91.3315 183.065 -92.7967 183.149 -94.2408 183.388C-97.8584 183.94 -100.672 185.062 -100.521 186.017C-100.371 186.972 -97.9421 187.122 -94.8437 186.771C-93.7491 187.484 -92.4654 187.851 -91.1592 187.826C-89.957 187.919 -88.7511 187.7 -87.6589 187.189C-87.3878 187.523 -87.0458 187.793 -86.6576 187.978C-86.2694 188.164 -85.8448 188.26 -85.4146 188.261C-84.7147 188.256 -84.0409 187.994 -83.5221 187.524C-83.1844 187.918 -82.7656 188.234 -82.2945 188.451C-81.8233 188.667 -81.3108 188.78 -80.7922 188.78C-80.0824 188.784 -79.3879 188.574 -78.7992 188.177C-78.127 188.548 -77.3726 188.743 -76.6052 188.747C-75.956 188.745 -75.3141 188.609 -74.7202 188.347C-74.1263 188.085 -73.5934 187.702 -73.1551 187.223C-72.6325 187.897 -71.9621 188.442 -71.1956 188.817C-70.429 189.192 -69.5868 189.385 -68.7337 189.383C-67.8072 189.384 -66.8948 189.157 -66.077 188.722C-65.2592 188.286 -64.561 187.657 -64.0442 186.888C-62.9398 189.046 -61.2607 190.858 -59.192 192.123C-57.1233 193.388 -54.7454 194.057 -52.3207 194.056C-50.3625 194.054 -48.4293 193.616 -46.6619 192.773C-44.8946 191.93 -43.3376 190.703 -42.1044 189.182C-41.2219 191.292 -39.7349 193.094 -37.8305 194.361C-35.9261 195.627 -33.6896 196.302 -31.4024 196.3C-28.9353 196.299 -26.5329 195.511 -24.5448 194.05C-22.5568 192.589 -21.0868 190.531 -20.3488 188.177C-19.5189 190.376 -18.0392 192.27 -16.1065 193.607C-14.1739 194.945 -11.8798 195.662 -9.5296 195.664C-7.43588 195.661 -5.38197 195.091 -3.58609 194.015C-1.79022 192.939 -0.319463 191.396 0.669911 189.551C2.18626 192.072 4.25998 194.212 6.73197 195.807C9.20396 197.402 12.0085 198.41 14.9304 198.752C17.8523 199.095 20.8139 198.764 23.588 197.784C26.362 196.805 28.8748 195.203 30.9335 193.101C31.9323 194.724 33.2977 196.091 34.9201 197.091C36.5425 198.09 38.3767 198.696 40.2756 198.859C42.1744 199.022 44.085 198.737 45.8539 198.028C47.6229 197.319 49.201 196.205 50.4616 194.776C52.5437 196.574 54.9599 197.945 57.572 198.809C60.1841 199.672 62.9408 200.013 65.6846 199.811C68.4284 199.609 71.1055 198.868 73.5627 197.63C76.0199 196.393 78.209 194.683 80.005 192.599C81.4594 193.77 83.1367 194.634 84.9351 195.138C86.7335 195.641 88.6155 195.774 90.4668 195.528C92.3182 195.282 94.1002 194.663 95.7048 193.707C97.3094 192.752 98.703 191.48 99.8011 189.969C100.93 191.096 102.299 191.954 103.805 192.479C105.311 193.005 106.916 193.184 108.501 193.004C110.086 192.823 111.61 192.288 112.96 191.438C114.31 190.588 115.451 189.445 116.298 188.094C116.974 189.273 117.919 190.276 119.056 191.022C120.193 191.767 121.489 192.234 122.84 192.384C124.192 192.534 125.559 192.363 126.832 191.885C128.105 191.408 129.247 190.637 130.165 189.634C130.84 190.161 131.62 190.538 132.451 190.74C133.283 190.942 134.149 190.965 134.99 190.806C135.831 190.648 136.629 190.312 137.331 189.821C138.032 189.33 138.621 188.696 139.058 187.96C139.513 188.477 140.079 188.884 140.714 189.15C141.349 189.416 142.036 189.534 142.724 189.496C143.411 189.457 144.081 189.262 144.682 188.927C145.283 188.591 145.8 188.123 146.193 187.558C146.546 187.888 146.963 188.143 147.417 188.309C147.871 188.475 148.354 188.548 148.837 188.523C149.32 188.498 149.793 188.375 150.228 188.164C150.663 187.952 151.051 187.655 151.368 187.29C151.899 187.748 152.576 188.003 153.277 188.01C153.703 188.009 154.124 187.913 154.509 187.731C154.894 187.549 155.234 187.284 155.505 186.955C156.602 187.451 157.805 187.664 159.005 187.574C160.308 187.594 161.589 187.233 162.69 186.536C165.805 186.871 168.267 186.536 168.384 185.766C168.501 184.995 165.704 183.655 162.087 183.086Z" fill="url(#paint1_linear)"/>
<path style="mix-blend-mode:screen" opacity="0.9" d="M302.452 220.785C302.326 219.848 301.948 218.963 301.359 218.224C300.77 217.485 299.991 216.919 299.106 216.588C298.221 216.256 297.263 216.17 296.333 216.34C295.403 216.51 294.537 216.929 293.826 217.553C293.345 216.873 292.708 216.318 291.967 215.936C291.227 215.555 290.405 215.356 289.572 215.359C288.676 215.354 287.794 215.579 287.01 216.012C286.797 215.018 286.299 214.107 285.578 213.39C284.856 212.674 283.941 212.183 282.946 211.977C281.95 211.771 280.916 211.859 279.969 212.231C279.022 212.602 278.204 213.241 277.614 214.069C276.957 213.407 276.173 212.882 275.311 212.526C274.448 212.169 273.523 211.988 272.59 211.993C271.66 211.997 270.739 212.179 269.877 212.529C269.792 211.378 269.329 210.287 268.561 209.426C267.793 208.565 266.762 207.982 265.629 207.766C264.495 207.55 263.322 207.715 262.291 208.234C261.261 208.753 260.43 209.597 259.928 210.636C258.682 209.614 257.119 209.058 255.507 209.062C254.336 209.071 253.185 209.37 252.157 209.933C250.659 208.825 248.897 208.129 247.046 207.911C245.196 207.694 243.321 207.963 241.606 208.693C241.232 207.096 240.497 205.605 239.458 204.336C238.418 203.067 237.101 202.053 235.608 201.372C234.116 200.691 232.487 200.362 230.847 200.409C229.207 200.455 227.599 200.878 226.148 201.643C225.377 200.475 224.297 199.545 223.029 198.956C221.76 198.366 220.353 198.141 218.964 198.304C217.575 198.467 216.258 199.013 215.161 199.88C214.064 200.748 213.229 201.903 212.749 203.217C212.546 201.607 211.955 200.071 211.029 198.739C210.102 197.407 208.867 196.32 207.428 195.569C205.99 194.819 204.391 194.428 202.769 194.43C201.146 194.431 199.548 194.826 198.112 195.58C197.047 193.542 195.488 191.804 193.577 190.525C191.666 189.247 189.465 188.468 187.175 188.261C187.283 187.8 187.339 187.328 187.343 186.854C187.343 185.171 186.674 183.556 185.484 182.366C184.293 181.176 182.679 180.507 180.995 180.507C180.228 180.507 179.467 180.649 178.751 180.926C178.279 179.148 177.432 177.492 176.266 176.069C175.1 174.647 173.642 173.491 171.991 172.68C170.34 171.869 168.535 171.421 166.696 171.368C164.857 171.314 163.029 171.655 161.333 172.368C161.248 168.296 159.601 164.413 156.732 161.523C153.862 158.633 149.991 156.958 145.921 156.844C141.85 156.73 137.891 158.186 134.865 160.91C131.838 163.635 129.975 167.42 129.663 171.48C127.888 169.832 125.683 168.72 123.303 168.274C120.922 167.828 118.464 168.065 116.213 168.959C113.962 169.853 112.011 171.367 110.585 173.325C109.16 175.283 108.318 177.605 108.158 180.021C107.168 179.624 106.111 179.419 105.043 179.418C103.099 179.435 101.216 180.104 99.6972 181.319C98.1786 182.534 97.1122 184.224 96.6693 186.117C94.557 184.756 92.1632 183.892 89.6685 183.591C87.1737 183.29 84.6431 183.559 82.2675 184.378C79.892 185.198 77.7334 186.546 75.9548 188.321C74.1761 190.096 72.8236 192.251 71.9995 194.625C71.6927 194.608 71.3852 194.608 71.0784 194.625C69.8166 194.626 68.5751 194.942 67.4665 195.544C66.358 196.147 65.4176 197.017 64.7309 198.075C63.3697 197.345 61.8653 196.922 60.3232 196.835C58.7811 196.748 57.2387 197 55.8042 197.573C54.7167 196.384 53.3368 195.501 51.802 195.011C50.2672 194.521 48.6308 194.442 47.0557 194.78C45.4806 195.119 44.0216 195.864 42.8239 196.942C41.6261 198.019 40.7314 199.392 40.2286 200.922C36.3532 200.668 32.4649 201.157 28.773 202.363C24.1841 203.803 21.1359 206.215 20.9349 208.928C20.0787 208.578 19.1633 208.397 18.2385 208.392C17.3044 208.392 16.3795 208.578 15.5172 208.937C14.655 209.296 13.8722 209.822 13.2141 210.485C12.7359 209.801 12.0993 209.243 11.3586 208.858C10.6178 208.473 9.79495 208.273 8.96015 208.275C7.73814 208.232 6.53958 208.617 5.57063 209.363C4.60168 210.109 3.9229 211.169 3.65104 212.361C2.86804 211.923 1.98592 211.692 1.0886 211.691C0.248038 211.686 -0.581461 211.883 -1.33036 212.265C-2.07926 212.646 -2.72575 213.202 -3.21562 213.885C-4.1603 213.112 -5.34452 212.692 -6.56522 212.696C-7.83066 212.696 -9.05335 213.154 -10.0076 213.985C-10.9618 214.816 -11.5832 215.964 -11.7571 217.218C-22.3586 217.318 -30.7158 218.591 -30.7158 220.132C-30.7158 221.673 -21.5379 223.063 -10.2163 223.063H-9.52961C-9.25958 223.913 -8.72623 224.655 -8.00668 225.182C-7.28713 225.709 -6.41866 225.993 -5.52684 225.994C-4.92492 225.971 -4.33502 225.818 -3.79742 225.547C-3.25981 225.275 -2.78716 224.89 -2.41172 224.419C1.05306 225.649 4.67152 226.393 8.34047 226.63C8.95731 227.79 10.004 228.662 11.2562 229.06C12.5085 229.458 13.8666 229.349 15.0397 228.757C15.5274 229.587 16.2397 230.262 17.0944 230.705C17.9492 231.148 18.9117 231.34 19.871 231.259C20.8303 231.179 21.7472 230.829 22.5163 230.25C23.2853 229.671 23.875 228.886 24.2175 227.987C27.2557 228.679 30.3631 229.022 33.4792 229.008C35.9497 229.017 38.416 228.804 40.8483 228.372C41.2226 229.333 41.8785 230.16 42.7302 230.742C43.5818 231.325 44.5895 231.637 45.6215 231.638C46.8587 231.635 48.0514 231.176 48.9711 230.348C51.1263 231.413 53.5771 231.721 55.9287 231.222C58.2803 230.724 60.3957 229.449 61.934 227.601C62.5374 229.714 63.7746 231.591 65.4786 232.978C67.1826 234.366 69.2713 235.197 71.4627 235.359C73.654 235.522 75.8424 235.008 77.7324 233.887C79.6224 232.766 81.123 231.093 82.0315 229.092C83.4665 231.032 85.3522 232.595 87.5257 233.643C89.6993 234.692 92.0955 235.196 94.5074 235.112C96.9194 235.028 99.2746 234.359 101.37 233.161C103.465 231.963 105.237 230.274 106.534 228.238C108.305 230.933 110.591 233.251 113.262 235.059C115.933 236.866 118.936 238.127 122.096 238.768C125.257 239.409 128.513 239.419 131.677 238.796C134.841 238.173 137.851 236.93 140.532 235.138C141.497 236.304 142.698 237.253 144.056 237.921C145.413 238.59 146.897 238.963 148.41 239.017C149.922 239.071 151.429 238.804 152.831 238.233C154.233 237.663 155.498 236.802 156.543 235.707C157.473 237.224 158.755 238.493 160.281 239.406C161.807 240.319 163.532 240.849 165.307 240.951C167.083 241.053 168.857 240.724 170.477 239.992C172.098 239.259 173.517 238.146 174.614 236.746C175.7 238.89 177.377 240.677 179.448 241.898C181.518 243.118 183.894 243.72 186.296 243.632C188.698 243.544 191.024 242.77 192.999 241.401C194.974 240.032 196.516 238.126 197.442 235.908C199.463 238.119 202.207 239.534 205.18 239.9C208.152 240.265 211.158 239.556 213.654 237.901C215.139 238.633 216.771 239.017 218.427 239.023C220.755 239.024 223.02 238.268 224.881 236.87C226.742 235.471 228.097 233.505 228.744 231.269C230.282 233.116 232.397 234.392 234.749 234.89C237.101 235.388 239.551 235.08 241.707 234.016C242.634 234.832 243.822 235.289 245.056 235.305C246.086 235.304 247.091 234.991 247.94 234.408C248.788 233.826 249.441 233 249.813 232.04C252.252 232.465 254.723 232.678 257.199 232.676C260.309 232.689 263.411 232.346 266.443 231.654C272.422 238.27 281.081 234.133 282.304 230.281C285.968 230.059 289.582 229.321 293.039 228.087C293.534 228.638 294.165 229.049 294.869 229.279C295.573 229.509 296.325 229.55 297.05 229.397C297.774 229.244 298.446 228.904 298.997 228.409C299.549 227.915 299.96 227.284 300.191 226.58H300.877C312.216 226.58 321.394 225.274 321.394 223.649C321.394 222.024 313.053 220.902 302.452 220.785Z" fill="url(#paint2_linear)"/>
<path style="mix-blend-mode:screen" d="M548.278 168.348C545.883 168.097 543.254 167.98 540.775 167.946C540.721 167.053 540.377 166.202 539.794 165.523C539.212 164.844 538.424 164.373 537.549 164.184C536.675 163.994 535.762 164.095 534.951 164.472C534.14 164.849 533.473 165.481 533.054 166.271C532.569 159.355 513.392 155.369 510.093 161.833C509.936 160.56 509.475 159.343 508.749 158.285C508.023 157.227 507.054 156.359 505.923 155.754C504.982 155.248 503.951 154.933 502.888 154.828C501.826 154.723 500.753 154.829 499.732 155.14C498.71 155.452 497.761 155.962 496.938 156.642C496.114 157.322 495.434 158.159 494.936 159.103C494.884 159.206 494.839 159.313 494.802 159.422C493.602 159.138 492.381 158.953 491.151 158.869C491.373 157.63 491.158 156.352 490.541 155.254C489.925 154.156 488.946 153.307 487.772 152.851C486.598 152.396 485.303 152.363 484.107 152.758C482.912 153.153 481.891 153.952 481.219 155.017C478.267 152.579 474.58 151.204 470.752 151.115C469.758 148.44 468.118 146.053 465.976 144.168C463.835 142.282 461.26 140.957 458.481 140.31C455.702 139.663 452.806 139.714 450.052 140.46C447.298 141.206 444.772 142.622 442.699 144.583C442.7 142.94 442.263 141.325 441.434 139.906C440.605 138.487 439.414 137.314 437.982 136.508C436.55 135.702 434.929 135.291 433.285 135.318C431.642 135.345 430.036 135.808 428.631 136.661C428.221 134.046 427.122 131.587 425.447 129.536C423.772 127.486 421.581 125.919 419.099 124.997C416.618 124.074 413.935 123.829 411.328 124.287C408.72 124.744 406.281 125.888 404.262 127.601C402.957 124.943 400.856 122.76 398.25 121.354C394.9 119.551 390.971 119.151 387.326 120.24C383.681 121.33 380.617 123.82 378.806 127.165C378.655 127.45 378.521 127.752 378.387 128.053C376.208 125.95 373.571 124.38 370.684 123.468C367.796 122.556 364.736 122.327 361.744 122.797C358.753 123.268 355.911 124.426 353.443 126.181C350.975 127.936 348.948 130.239 347.52 132.91C346.61 134.603 345.95 136.42 345.561 138.303C342.092 138.252 338.718 139.434 336.04 141.64C333.362 143.845 331.555 146.93 330.94 150.344C329.414 150.017 327.832 150.072 326.333 150.505C324.834 150.937 323.465 151.734 322.348 152.823C321.739 152.319 321.083 151.876 320.389 151.5C317.602 149.994 314.343 149.618 311.287 150.451C308.231 151.283 305.613 153.26 303.976 155.971C303.793 155.824 303.597 155.695 303.389 155.586C302.342 155.039 301.12 154.925 299.989 155.269C298.858 155.614 297.908 156.39 297.343 157.429C296.867 158.333 296.708 159.371 296.891 160.376C296.318 160.513 295.758 160.698 295.216 160.929C294.758 159.957 293.967 159.18 292.987 158.74C292.007 158.3 290.901 158.224 289.87 158.527C288.839 158.831 287.95 159.493 287.364 160.394C286.778 161.295 286.534 162.376 286.675 163.441C285.925 163.599 285.199 163.852 284.514 164.195C283.566 163.99 282.577 164.098 281.696 164.503C280.814 164.907 280.087 165.587 279.624 166.439C279.53 166.63 279.446 166.825 279.373 167.025C278.797 166.883 278.207 166.809 277.614 166.807C276.659 166.766 275.705 166.93 274.819 167.289C273.932 167.647 273.132 168.191 272.473 168.884H271.987C265.824 168.884 260.833 169.839 260.833 171.028C260.833 172.217 265.857 173.171 271.987 173.171H272.473C273.132 173.865 273.932 174.409 274.819 174.767C275.705 175.125 276.659 175.289 277.614 175.248C278.77 175.259 279.914 175.013 280.964 174.528C281.808 175.993 283.083 177.162 284.615 177.878C285.787 178.431 287.059 178.741 288.354 178.79C289.649 178.839 290.941 178.625 292.152 178.162C292.815 178.818 293.565 179.382 294.379 179.837C295.92 180.68 297.647 181.122 299.403 181.122C301.159 181.122 302.887 180.68 304.428 179.837C305.206 180.689 306.124 181.403 307.141 181.947C309.426 183.183 312.084 183.54 314.614 182.951C317.144 182.362 319.371 180.867 320.874 178.748C321.511 180.629 322.678 182.286 324.235 183.519C325.791 184.752 327.671 185.509 329.648 185.698C331.625 185.888 333.614 185.501 335.377 184.586C337.139 183.671 338.599 182.266 339.582 180.54C341.294 182.916 343.521 184.874 346.097 186.268C350.104 188.43 354.737 189.135 359.206 188.261C363.674 187.387 367.701 184.99 370.599 181.478C371.719 183.411 373.334 185.01 375.279 186.111C377.223 187.211 379.425 187.774 381.659 187.739C383.892 187.705 386.077 187.076 387.986 185.917C389.896 184.757 391.462 183.109 392.522 181.143L392.656 180.875C393.309 182.851 394.528 184.593 396.161 185.883C397.794 187.173 399.769 187.956 401.843 188.134C403.916 188.312 405.997 187.878 407.826 186.886C409.655 185.893 411.153 184.386 412.134 182.55C412.322 182.203 412.49 181.845 412.636 181.478C414.267 183.953 416.491 185.979 419.106 187.373C421.721 188.766 424.644 189.483 427.607 189.456C430.57 189.429 433.479 188.661 436.069 187.22C438.658 185.78 440.846 183.714 442.431 181.21C443.395 182.711 444.689 183.972 446.215 184.898C447.74 185.823 449.457 186.388 451.233 186.549C453.01 186.711 454.8 186.465 456.467 185.83C458.134 185.195 459.635 184.188 460.854 182.885C461.264 183.164 461.689 183.421 462.127 183.655C465.302 185.371 468.934 186.049 472.514 185.596C476.095 185.142 479.443 183.58 482.09 181.127C485.305 182.131 488.696 182.442 492.039 182.037C495.383 181.633 498.602 180.524 501.484 178.782C504.853 179.337 508.285 179.382 511.667 178.916C512.301 179.675 513.074 180.306 513.945 180.775C514.886 181.281 515.919 181.596 516.983 181.702C518.047 181.807 519.121 181.701 520.144 181.39C521.166 181.078 522.117 180.568 522.942 179.887C523.767 179.207 524.448 178.37 524.948 177.425C524.948 177.425 524.948 177.425 524.948 177.325C529.028 177.249 533.05 176.349 536.772 174.679C544.007 174.963 551.628 174.294 555.312 173.004C559.834 171.312 556.686 169.252 548.278 168.348Z" fill="url(#paint3_linear)"/>
<path d="M374.083 243.981C372.463 243.703 370.817 243.602 369.175 243.679C368.905 242.993 368.427 242.409 367.809 242.006C367.19 241.604 366.462 241.405 365.725 241.435C365.001 241.279 364.246 241.358 363.568 241.659C362.891 241.96 362.327 242.468 361.957 243.11C361.222 242.331 360.21 241.875 359.14 241.84C358.07 241.806 357.029 242.196 356.246 242.926C355.82 242.317 355.263 241.81 354.618 241.443C353.972 241.075 353.252 240.855 352.511 240.799C352.266 240.068 351.798 239.433 351.173 238.983C350.548 238.532 349.798 238.289 349.028 238.287C348.487 238.287 347.954 238.414 347.47 238.655C346.973 237.765 346.282 236.997 345.449 236.408C344.616 235.819 343.662 235.425 342.656 235.253C341.651 235.081 340.62 235.136 339.639 235.415C338.657 235.694 337.751 236.188 336.986 236.863C335.605 235.812 333.967 235.153 332.243 234.952C330.519 234.752 328.774 235.018 327.188 235.724C327.066 234.784 326.75 233.879 326.26 233.067C325.771 232.255 325.119 231.553 324.344 231.006C323.57 230.458 322.691 230.077 321.763 229.886C320.834 229.695 319.876 229.698 318.948 229.896V229.745C318.948 227.929 318.227 226.186 316.942 224.902C315.657 223.617 313.915 222.895 312.098 222.895C311.597 222.891 311.096 222.948 310.608 223.063C309.929 220.529 308.645 218.198 306.866 216.27C305.087 214.342 302.867 212.874 300.395 211.995C297.924 211.115 295.276 210.849 292.679 211.219C290.081 211.589 287.613 212.584 285.486 214.12C285.23 211.852 284.327 209.706 282.884 207.937C281.441 206.169 279.52 204.853 277.35 204.147C275.18 203.44 272.852 203.373 270.645 203.954C268.438 204.534 266.444 205.738 264.903 207.42C264.559 203.571 263.172 199.888 260.892 196.767C258.612 193.646 255.525 191.205 251.962 189.707C248.399 188.209 244.495 187.71 240.67 188.264C236.845 188.818 233.243 190.403 230.251 192.85C227.114 188.451 222.761 185.062 217.728 183.099C212.694 181.135 207.197 180.682 201.909 181.795C196.622 182.907 191.773 185.537 187.958 189.363C184.142 193.189 181.525 198.044 180.426 203.334C178.476 202.776 176.458 202.489 174.43 202.48C169.131 202.484 164.017 204.431 160.057 207.953C156.097 211.475 153.565 216.326 152.942 221.589C151.613 221.123 150.214 220.885 148.806 220.886C146.58 220.889 144.394 221.482 142.47 222.602C140.547 223.723 138.954 225.332 137.853 227.267C136.492 226.87 135.083 226.667 133.666 226.664C131.211 226.664 128.795 227.277 126.636 228.446C124.478 229.616 122.646 231.306 121.306 233.363C120.271 232.652 119.044 232.272 117.788 232.274C116.421 232.274 115.09 232.719 113.997 233.54C112.904 234.362 112.107 235.516 111.726 236.829C111.12 236.559 110.463 236.422 109.8 236.427C109.137 236.432 108.482 236.579 107.881 236.858C107.279 237.138 106.745 237.543 106.313 238.046C105.881 238.55 105.562 239.14 105.378 239.777C104.654 239.924 103.969 240.22 103.367 240.647C102.764 241.074 102.257 241.622 101.878 242.256H101.727C101.174 242.256 100.626 242.371 100.119 242.593C99.6114 242.815 99.1555 243.139 98.7795 243.545C98.4058 242.907 97.8411 242.402 97.165 242.101C96.4889 241.801 95.7356 241.72 95.0112 241.871C94.271 241.845 93.5409 242.049 92.9205 242.453C92.3001 242.858 91.8196 243.444 91.5444 244.132C89.9088 244.056 88.2698 244.152 86.654 244.416C82.601 245.053 79.4524 246.359 79.6031 247.364C79.7538 248.369 82.4837 248.603 85.9841 248.218C87.2071 249.017 88.6437 249.425 90.1041 249.39C91.454 249.485 92.8062 249.243 94.0398 248.687C94.3144 249.024 94.6541 249.302 95.0386 249.504C95.4231 249.707 95.8445 249.83 96.2776 249.866C96.7106 249.901 97.1465 249.85 97.5591 249.713C97.9717 249.577 98.3526 249.359 98.679 249.072C99.0565 249.51 99.5245 249.861 100.051 250.101C100.577 250.341 101.149 250.464 101.727 250.462C102.519 250.461 103.294 250.228 103.955 249.792C104.713 250.198 105.557 250.416 106.417 250.429C107.144 250.431 107.865 250.283 108.533 249.995C109.202 249.707 109.804 249.284 110.302 248.754C110.914 249.542 111.704 250.173 112.608 250.595C113.512 251.017 114.504 251.217 115.501 251.179C116.498 251.142 117.471 250.867 118.341 250.378C119.21 249.89 119.951 249.201 120.502 248.369C121.622 250.557 123.27 252.431 125.297 253.822C127.325 255.212 129.667 256.074 132.112 256.33C134.557 256.587 137.028 256.228 139.299 255.289C141.571 254.349 143.572 252.857 145.121 250.948C146.15 253.404 147.909 255.486 150.16 256.91C152.411 258.334 155.045 259.032 157.706 258.909C160.367 258.787 162.925 257.85 165.036 256.225C167.147 254.6 168.707 252.367 169.506 249.826C170.387 252.157 171.921 254.184 173.924 255.667C175.927 257.15 178.314 258.025 180.801 258.187C183.287 258.35 185.768 257.793 187.947 256.583C190.126 255.374 191.91 253.563 193.087 251.367C194.791 254.189 197.117 256.585 199.888 258.371C202.66 260.156 205.803 261.284 209.077 261.669C212.351 262.054 215.67 261.685 218.78 260.59C221.889 259.495 224.708 257.704 227.019 255.352C228.147 257.166 229.683 258.69 231.506 259.804C233.328 260.918 235.385 261.59 237.513 261.768C239.642 261.945 241.782 261.623 243.763 260.826C245.745 260.029 247.512 258.78 248.925 257.178C251.268 259.183 253.983 260.706 256.916 261.659C259.848 262.613 262.94 262.979 266.014 262.737C269.088 262.494 272.084 261.647 274.83 260.245C277.577 258.843 280.02 256.913 282.019 254.565C283.651 255.878 285.533 256.846 287.55 257.41C289.567 257.974 291.678 258.123 293.754 257.847C295.831 257.572 297.829 256.877 299.629 255.807C301.43 254.736 302.994 253.311 304.227 251.618C305.491 252.87 307.019 253.823 308.7 254.406C310.382 254.989 312.172 255.188 313.94 254.987C315.708 254.786 317.408 254.191 318.916 253.246C320.423 252.3 321.699 251.028 322.65 249.524C323.421 250.835 324.488 251.947 325.765 252.772C327.043 253.596 328.496 254.111 330.008 254.273C331.52 254.436 333.049 254.243 334.473 253.709C335.897 253.175 337.176 252.316 338.208 251.199C338.965 251.796 339.842 252.222 340.779 252.448C341.716 252.675 342.69 252.697 343.636 252.512C344.582 252.328 345.477 251.942 346.26 251.38C347.043 250.818 347.696 250.093 348.173 249.256C348.676 249.849 349.309 250.317 350.023 250.624C350.737 250.93 351.513 251.067 352.289 251.023C353.065 250.979 353.82 250.756 354.495 250.371C355.17 249.986 355.746 249.45 356.179 248.804C356.573 249.18 357.04 249.472 357.551 249.661C358.062 249.851 358.606 249.934 359.15 249.906C359.694 249.877 360.226 249.738 360.715 249.497C361.203 249.256 361.637 248.918 361.991 248.503C362.313 248.794 362.692 249.015 363.104 249.154C363.516 249.293 363.952 249.346 364.385 249.31C364.818 249.274 365.239 249.149 365.622 248.944C366.006 248.739 366.343 248.458 366.613 248.117C367.847 248.671 369.199 248.913 370.549 248.821C372.015 248.858 373.457 248.449 374.686 247.649C378.169 248.05 380.933 247.649 381.066 246.811C381.2 245.974 378.136 244.6 374.083 243.981Z" fill="white"/>
<path d="M617.749 229.963C613.813 229.544 609.593 229.343 605.389 229.31C605.327 227.824 604.772 226.401 603.812 225.266C602.852 224.13 601.542 223.346 600.087 223.037C598.633 222.728 597.117 222.912 595.778 223.559C594.44 224.207 593.354 225.281 592.694 226.613C591.907 215.242 560.337 208.677 554.927 219.328C554.517 216.564 553.252 213.997 551.311 211.987C549.369 209.977 546.847 208.624 544.099 208.119C541.35 207.613 538.512 207.979 535.982 209.166C533.452 210.354 531.357 212.302 529.989 214.739C529.889 214.907 529.855 215.091 529.755 215.275C527.783 214.816 525.778 214.508 523.759 214.354C524.129 212.317 523.779 210.215 522.767 208.408C521.756 206.601 520.147 205.203 518.216 204.454C516.286 203.705 514.155 203.652 512.19 204.303C510.225 204.954 508.547 206.27 507.447 208.023C506.044 206.865 504.529 205.849 502.925 204.992C499.032 202.897 494.7 201.75 490.28 201.643C488.63 197.254 485.922 193.342 482.397 190.251C478.871 187.161 474.637 184.99 470.07 183.929C465.504 182.869 460.746 182.952 456.219 184.173C451.693 185.393 447.537 187.712 444.123 190.924C444.128 188.22 443.413 185.564 442.051 183.229C440.689 180.894 438.729 178.964 436.372 177.638C434.016 176.313 431.349 175.639 428.646 175.687C425.943 175.735 423.301 176.503 420.994 177.911C420.321 173.607 418.514 169.559 415.758 166.185C413.002 162.811 409.396 160.232 405.312 158.714C401.229 157.196 396.814 156.793 392.523 157.548C388.233 158.302 384.22 160.186 380.899 163.006C378.979 159.134 376.031 155.864 372.379 153.554C368.726 151.243 364.509 149.981 360.188 149.905C355.867 149.829 351.608 150.942 347.876 153.123C344.145 155.303 341.084 158.467 339.029 162.269C338.761 162.754 338.56 163.24 338.326 163.726C336.239 161.753 333.902 160.064 331.375 158.701C326.935 156.298 321.993 154.967 316.946 154.817C311.899 154.668 306.887 155.702 302.312 157.838C297.737 159.974 293.725 163.153 290.6 167.118C287.474 171.084 285.321 175.727 284.313 180.674C278.606 180.578 273.051 182.517 268.644 186.145C264.237 189.772 261.266 194.851 260.263 200.47C257.753 199.935 255.149 200.028 252.683 200.741C250.218 201.454 247.966 202.765 246.128 204.557C245.118 203.736 244.036 203.007 242.896 202.379C238.308 199.904 232.944 199.288 227.914 200.66C222.885 202.032 218.577 205.286 215.881 209.748C215.583 209.502 215.264 209.284 214.927 209.095C213.194 208.163 211.162 207.956 209.278 208.522C207.394 209.087 205.811 210.378 204.878 212.11C204.077 213.595 203.817 215.311 204.141 216.967C203.185 217.198 202.25 217.506 201.344 217.888C200.599 216.278 199.301 214.989 197.686 214.256C196.07 213.522 194.245 213.394 192.543 213.893C190.841 214.392 189.374 215.486 188.41 216.975C187.447 218.464 187.05 220.25 187.293 222.008C186.058 222.268 184.86 222.679 183.725 223.23C182.163 222.898 180.536 223.08 179.087 223.751C177.637 224.421 176.444 225.543 175.686 226.948C175.528 227.256 175.393 227.575 175.284 227.903C174.328 227.681 173.351 227.563 172.37 227.551C170.817 227.487 169.268 227.753 167.825 228.33C166.382 228.907 165.077 229.783 163.996 230.901H163.192C153.043 230.901 144.769 232.492 144.769 234.435C144.769 236.377 152.976 237.952 163.192 237.952H163.996C165.077 239.069 166.382 239.945 167.825 240.522C169.268 241.1 170.817 241.365 172.37 241.301C174.267 241.321 176.144 240.914 177.863 240.112C179.242 242.552 181.343 244.506 183.876 245.706C185.8 246.626 187.892 247.143 190.023 247.226C192.154 247.31 194.279 246.958 196.269 246.191C197.372 247.222 198.598 248.111 199.92 248.838C202.468 250.212 205.321 250.923 208.215 250.905C211.11 250.888 213.953 250.142 216.484 248.737C218.256 250.637 220.429 252.118 222.844 253.075C225.26 254.031 227.858 254.438 230.45 254.267C233.042 254.095 235.564 253.349 237.832 252.083C240.101 250.817 242.059 249.062 243.566 246.945C244.611 250.041 246.529 252.768 249.089 254.798C251.649 256.828 254.742 258.073 257.994 258.385C261.246 258.697 264.519 258.061 267.418 256.554C270.317 255.047 272.718 252.734 274.332 249.893C277.228 253.884 281.001 257.158 285.36 259.464C289.719 261.77 294.548 263.046 299.477 263.195C304.406 263.343 309.304 262.361 313.794 260.322C318.284 258.283 322.248 255.243 325.379 251.434C327.283 254.741 330.073 257.45 333.435 259.255C338.262 261.858 343.924 262.439 349.179 260.869C354.433 259.298 358.848 255.706 361.455 250.881L361.656 250.429C362.722 253.682 364.719 256.55 367.4 258.68C370.081 260.809 373.327 262.106 376.737 262.409C380.147 262.712 383.571 262.008 386.585 260.385C389.599 258.761 392.071 256.29 393.694 253.276C394.002 252.706 394.276 252.119 394.515 251.517C397.2 255.586 400.861 258.917 405.164 261.207C409.467 263.497 414.275 264.674 419.149 264.629C424.023 264.584 428.808 263.319 433.068 260.95C437.328 258.58 440.927 255.182 443.536 251.065C445.275 253.877 447.717 256.186 450.621 257.764C454.368 259.785 458.681 260.506 462.882 259.811C467.083 259.117 470.935 257.048 473.833 253.929C474.503 254.364 475.19 254.8 475.927 255.185C481.153 258 487.128 259.112 493.017 258.364C498.905 257.616 504.413 255.047 508.77 251.015C519.74 254.364 532.451 252.69 540.691 247.146C546.229 248.079 551.877 248.158 557.439 247.381C558.843 249.031 560.629 250.314 562.642 251.116C564.654 251.919 566.833 252.218 568.987 251.987C571.142 251.756 573.207 251.002 575.004 249.79C576.8 248.579 578.274 246.947 579.295 245.036V244.868C587.033 244.45 594.184 242.942 598.74 240.514C610.648 240.983 623.175 239.894 629.255 237.684C636.741 234.837 631.532 231.437 617.749 229.963Z" fill="white"/>
<path d="M412.821 224.872H0.133972V551.62H412.821V224.872Z" fill="white"/>
</g>
<defs>
<linearGradient id="paint0_linear" x1="259.309" y1="244.148" x2="259.309" y2="154.38" gradientUnits="userSpaceOnUse">
<stop/>
<stop offset="0.13" stop-color="#040404"/>
<stop offset="0.26" stop-color="#101010"/>
<stop offset="0.4" stop-color="#242424"/>
<stop offset="0.53" stop-color="#404040"/>
<stop offset="0.66" stop-color="#646464"/>
<stop offset="0.79" stop-color="#919191"/>
<stop offset="0.92" stop-color="#C4C4C4"/>
<stop offset="1" stop-color="#E6E6E6"/>
</linearGradient>
<linearGradient id="paint1_linear" x1="5328.86" y1="8799.34" x2="5328.86" y2="5644.04" gradientUnits="userSpaceOnUse">
<stop/>
<stop offset="0.13" stop-color="#040404"/>
<stop offset="0.26" stop-color="#101010"/>
<stop offset="0.4" stop-color="#242424"/>
<stop offset="0.53" stop-color="#404040"/>
<stop offset="0.66" stop-color="#646464"/>
<stop offset="0.79" stop-color="#919191"/>
<stop offset="0.92" stop-color="#C4C4C4"/>
<stop offset="1" stop-color="#E6E6E6"/>
</linearGradient>
<linearGradient id="paint2_linear" x1="30497.2" y1="12788.4" x2="30497.2" y2="8285.07" gradientUnits="userSpaceOnUse">
<stop/>
<stop offset="0.13" stop-color="#040404"/>
<stop offset="0.26" stop-color="#101010"/>
<stop offset="0.4" stop-color="#242424"/>
<stop offset="0.53" stop-color="#404040"/>
<stop offset="0.66" stop-color="#646464"/>
<stop offset="0.79" stop-color="#919191"/>
<stop offset="0.92" stop-color="#C4C4C4"/>
<stop offset="1" stop-color="#E6E6E6"/>
</linearGradient>
<linearGradient id="paint3_linear" x1="72671.3" y1="8016.06" x2="72671.3" y2="5106.74" gradientUnits="userSpaceOnUse">
<stop/>
<stop offset="0.13" stop-color="#040404"/>
<stop offset="0.26" stop-color="#101010"/>
<stop offset="0.4" stop-color="#242424"/>
<stop offset="0.53" stop-color="#404040"/>
<stop offset="0.66" stop-color="#646464"/>
<stop offset="0.79" stop-color="#919191"/>
<stop offset="0.92" stop-color="#C4C4C4"/>
<stop offset="1" stop-color="#E6E6E6"/>
</linearGradient>
<clipPath id="clip0">
<rect width="412" height="551" fill="white"/>
</clipPath>
</defs>
</svg>
