<svg width="62" height="62" viewBox="0 0 62 62" fill="none" xmlns="http://www.w3.org/2000/svg">
<g clip-path="url(#clip0)">
<path d="M62.0001 61.3453C61.6606 61.8424 61.1999 62 60.6059 62C40.8929 61.9879 21.1679 61.9879 1.45491 61.9879C0.363791 61.9879 0.012207 61.6363 0.012207 60.533C0.012207 60.3269 0.012207 60.1329 0.012207 59.9268C0.0243306 58.9933 0.436532 58.5569 1.38217 58.5448C2.72789 58.5205 4.08573 58.5326 5.43145 58.5326C23.7138 58.5326 41.9962 58.5326 60.2907 58.5326C60.9817 58.5326 61.6243 58.5933 62.0122 59.2843C62.0001 59.9753 62.0001 60.6664 62.0001 61.3453Z" fill="white"/>
<path d="M31.6184 -6.20191e-06C32.0064 0.315207 32.2489 0.715285 32.455 1.16386C32.952 2.2671 33.4855 3.35823 33.9825 4.44935C34.3462 5.23738 34.9767 5.64958 35.8132 5.74657C37.0134 5.89206 38.2137 6.00117 39.4139 6.14665C39.717 6.18302 40.0201 6.21939 40.2989 6.31638C41.2082 6.64372 41.3779 7.73484 40.6262 8.42588C39.7655 9.22604 38.9411 10.0504 38.0197 10.7657C36.9892 11.578 36.6497 12.5237 36.9892 13.7845C37.268 14.8514 37.4377 15.9546 37.6681 17.0336C37.7893 17.6398 37.8014 18.2096 37.2195 18.6097C36.6497 19.0098 36.1284 18.8522 35.5828 18.537C34.4553 17.9065 33.3157 17.3003 32.2004 16.6578C31.4244 16.2213 30.6728 16.2335 29.909 16.6578C28.7451 17.3125 27.5813 17.9429 26.4174 18.5854C25.8961 18.8764 25.3869 18.9613 24.8898 18.5854C24.3928 18.2217 24.3079 17.7247 24.4291 17.1306C24.708 15.8334 24.9383 14.524 25.2172 13.2268C25.399 12.4145 25.1566 11.7477 24.5746 11.2022C23.6169 10.3172 22.6348 9.44427 21.6528 8.57137C21.2164 8.18341 20.8527 7.75909 21.0467 7.10441C21.2406 6.47399 21.7135 6.23152 22.3196 6.15877C23.5805 6.01329 24.8413 5.85568 26.1022 5.74657C27.0721 5.66171 27.7631 5.24951 28.1632 4.32811C28.6724 3.1885 29.2301 2.07313 29.7393 0.93351C29.9211 0.533431 30.1515 0.206095 30.5152 -0.036377C30.9031 -6.20191e-06 31.2668 -6.20191e-06 31.6184 -6.20191e-06Z" fill="white"/>
<path d="M22.0651 41.9233C22.0651 37.5467 22.0651 33.1701 22.0651 28.7935C22.0651 28.5268 22.0651 28.2722 22.0772 28.0055C22.1378 26.8537 22.55 26.4658 23.7018 26.4658C28.5755 26.4658 33.4613 26.4658 38.3349 26.4658C39.5109 26.4658 39.9474 26.878 39.9595 28.0661C39.9838 29.824 39.9716 31.5698 39.9716 33.3277C39.9716 40.5412 39.9716 47.7669 39.9716 54.9804C39.9716 55.2471 39.9474 55.5017 39.9716 55.7685C40.0201 56.3504 39.7413 56.5322 39.1836 56.5322C33.7159 56.5201 28.2603 56.508 22.7925 56.5322C22.1742 56.5322 22.053 56.2534 22.053 55.72C22.0772 51.113 22.0772 46.5182 22.0651 41.9233Z" fill="white"/>
<path d="M20.0403 45.3786C20.0403 48.8217 20.0403 52.2769 20.0403 55.72C20.0403 56.4716 20.0039 56.508 19.2523 56.508C14.5483 56.508 9.85648 56.5201 5.15253 56.5201C4.413 56.5201 4.37663 56.4716 4.37663 55.72C4.37663 49.0884 4.3645 42.4568 4.3645 35.8131C4.3645 34.6249 4.78883 34.2127 5.97694 34.2006C10.3899 34.2006 14.815 34.2006 19.228 34.2006C20.016 34.2006 20.0282 34.2127 20.0282 35.025C20.0403 38.4802 20.0403 41.9355 20.0403 45.3786Z" fill="white"/>
<path d="M42.0083 46.4455C42.0083 43.3782 42.0083 40.3109 42.0083 37.2558C42.0083 36.4556 42.0325 36.4193 42.8085 36.4193C47.2093 36.4193 51.5981 36.4193 55.9989 36.4193C57.2598 36.4193 57.6841 36.8557 57.6841 38.0923C57.6841 43.9359 57.6841 49.7916 57.672 55.6351C57.672 56.508 57.6598 56.5202 56.7991 56.5202C52.1679 56.5202 47.5245 56.5202 42.8933 56.5202C42.0204 56.5202 42.0204 56.508 42.0204 55.6473C42.0083 52.5679 42.0083 49.5127 42.0083 46.4455Z" fill="white"/>
<path d="M28.7087 22.0043C28.7087 21.9437 28.7087 21.883 28.7087 21.8224C28.7209 19.6159 28.7209 19.6159 30.697 18.6339C30.7334 18.6218 30.7697 18.5976 30.8061 18.5854C31.4002 18.343 33.3157 19.5311 33.3278 20.1736C33.3399 21.3981 33.3278 22.6226 33.3399 23.8592C33.3399 24.2593 33.1702 24.4532 32.7701 24.4532C31.6063 24.4411 30.4424 24.4532 29.2664 24.4532C28.8906 24.4532 28.7209 24.2714 28.7209 23.8956C28.7209 23.253 28.7087 22.6226 28.7087 22.0043Z" fill="white"/>
</g>
<defs>
<clipPath id="clip0">
<rect width="62" height="62" fill="white"/>
</clipPath>
</defs>
</svg>
