<svg width="46" height="44" viewBox="0 0 46 44" fill="none" xmlns="http://www.w3.org/2000/svg">
<g clip-path="url(#clip0)">
<path d="M23 44C16 44 9 44 2 44C0.6 44 0 43.4054 0 42.018C0.15 35.2793 2.8 29.6802 7.8 25.1712C8.55 24.527 9.6 24.527 10.25 25.2207C10.9 25.964 10.85 26.955 10.1 27.6486C8.1 29.4324 6.5 31.464 5.35 33.8919C4.35 35.9234 3.8 38.0541 3.5 40.2342C3.45 40.5315 3.55 40.6802 3.85 40.6306C4 40.6306 4.1 40.6306 4.25 40.6306C16.8 40.6306 29.3 40.6306 41.85 40.6306C41.95 40.6306 42.1 40.6306 42.2 40.6306C42.55 40.6306 42.6 40.5315 42.55 40.1847C42.35 38.3018 41.9 36.4685 41.15 34.7342C39.05 29.8784 35.5 26.4099 30.6 24.3288C30.2 24.1306 29.85 24.1802 29.45 24.3784C21.75 28.7883 11.65 24.0811 10.1 15.4099C8.75 8.17567 13.5 1.38738 20.9 0.198194C28.2 -0.990995 34.7 3.86486 35.95 10.6531C36.7 14.6171 35.7 18.1847 33.15 21.3559C32.95 21.6531 32.9 21.7522 33.25 21.9504C40 25.4189 44.15 30.8694 45.65 38.2522C45.9 39.5405 46.05 40.8784 46 42.1667C46 43.3559 45.35 44 44.15 44C37.1 44 30.05 44 23 44ZM13.2 13.0315C13.3 18.3829 17.4 22.7432 23 22.7432C28.4 22.7432 32.8 18.5811 32.8 13.0811C32.8 7.68018 28.5 3.36937 23 3.36937C17.6 3.36937 13.3 7.58108 13.2 13.0315Z" fill="white"/>
</g>
<defs>
<clipPath id="clip0">
<rect width="46" height="44" fill="white"/>
</clipPath>
</defs>
</svg>
