<svg width="67" height="48" viewBox="0 0 67 48" fill="none" xmlns="http://www.w3.org/2000/svg">
<path d="M30 43.2223C30 45.4236 28.2148 47.2223 26 47.2223C23.7987 47.2223 22 45.4371 22 43.2223C22 41.0209 23.7852 39.2223 26 39.2223C28.2148 39.2357 30 41.0209 30 43.2223Z" fill="white"/>
<path d="M14.8216 35.7394L16.9183 33.6427C17.7177 32.7253 18.2026 31.5328 18.2026 30.2223C18.2026 27.3523 15.87 25.0197 13 25.0197C10.13 25.0197 7.79738 27.3523 7.79738 30.2223C7.79738 31.6638 8.37399 32.9612 9.31754 33.9048L5.63508 37.5872C3.74798 35.7001 2.58165 33.1054 2.58165 30.2354C2.58165 24.4955 7.23387 19.8302 12.9869 19.8302C18.7268 19.8302 23.3921 24.4824 23.3921 30.2354C23.3921 32.1618 22.8679 33.9703 21.9506 35.5166L23.8508 37.3906C25.2137 35.3332 26 32.8695 26 30.2223C26 23.0408 20.1815 17.2223 13 17.2223C5.81855 17.2223 0 23.0408 0 30.2223C0 37.4037 5.81855 43.2223 13 43.2223C15.6472 43.2223 18.1109 42.4229 20.1683 41.0731L14.8216 35.7394Z" fill="white"/>
<path d="M44 39.0646C44 39.2987 43.9228 39.4938 43.7683 39.6499C43.6138 39.806 43.4336 39.8841 43.2148 39.8841H39.6621C39.5205 39.8841 39.366 39.8451 39.2116 39.754C39.0571 39.6629 38.967 39.5589 38.9284 39.4288L38.5036 38.5573C37.6927 39.0776 36.8689 39.4938 36.0322 39.78C35.1955 40.0662 34.2687 40.2223 33.2389 40.2223C31.5012 40.2223 30.1883 39.741 29.313 38.7914C28.4377 37.8418 28 36.4499 28 34.6418V25.0158C28 24.7946 28.0772 24.6125 28.2446 24.4564C28.4119 24.3003 28.5921 24.2223 28.8109 24.2223H33.4191C33.638 24.2223 33.8182 24.3003 33.9855 24.4564C34.1529 24.6125 34.2301 24.7946 34.2301 25.0158V33.432C34.2301 34.6288 34.5648 35.2272 35.2599 35.2272C35.4014 35.2272 35.5817 35.2012 35.8134 35.1621C36.0322 35.1231 36.2896 35.0451 36.5857 34.928H36.5599C36.7916 34.8239 37.0105 34.7199 37.2164 34.6418C37.4224 34.5638 37.6154 34.4727 37.7957 34.3816V25.0158C37.7957 24.7946 37.8729 24.6125 38.0402 24.4564C38.2076 24.3003 38.3878 24.2223 38.6066 24.2223H43.2148C43.4336 24.2223 43.6138 24.3003 43.7683 24.4564C43.9228 24.6125 44 24.7946 44 25.0158V39.0646Z" fill="white"/>
<path d="M46.6036 39.2223C46.4328 39.2223 46.2847 39.1446 46.1708 38.9761C46.0569 38.8077 46 38.6263 46 38.4061V24.0385C46 23.8182 46.0569 23.6369 46.1708 23.4684C46.2847 23.3 46.4214 23.2223 46.6036 23.2223H49.9636C50.0433 23.2223 50.1458 23.2482 50.2597 23.2871C50.3736 23.3389 50.4989 23.3907 50.6014 23.4684C50.7153 23.5462 50.8064 23.6239 50.8861 23.7276C50.9658 23.8312 51 23.9348 51 24.0385V38.4061C51 38.6263 50.9431 38.8077 50.8292 38.9761C50.7153 39.1446 50.5786 39.2223 50.4191 39.2223H46.6036Z" fill="white"/>
<path d="M65.926 24.2223C66.1434 24.2223 66.3224 24.2972 66.4758 24.4469C66.6292 24.5967 66.7059 24.7839 66.7059 25.0085V28.4028L61.4639 34.0933H66.1945C66.4119 34.0933 66.5909 34.1682 66.7571 34.3304C66.9233 34.4927 67 34.6674 67 34.8795V38.4361C67 38.6607 66.9233 38.8479 66.7571 38.9977C66.5909 39.1474 66.4119 39.2223 66.1945 39.2223H53.7799C53.5626 39.2223 53.3836 39.1474 53.2301 38.9977C53.0767 38.8479 53 38.6607 53 38.4361V35.1915L58.242 29.3388H54.1507C53.9333 29.3388 53.7543 29.2639 53.6009 29.1017C53.4475 28.9394 53.3708 28.7647 53.3708 28.5526V25.0085C53.3708 24.7839 53.4475 24.5967 53.6009 24.4469C53.7543 24.2972 53.9333 24.2223 54.1507 24.2223H65.926Z" fill="white"/>
<path d="M52 20.2223C52 21.877 50.6547 23.2223 49 23.2223C47.3453 23.2223 46 21.877 46 20.2223C46 18.5676 47.3453 17.2223 49 17.2223C50.6547 17.2223 52 18.5676 52 20.2223Z" fill="white"/>
<path d="M9 13H9.61719V8.1875H12.5938C12.7266 8.1875 12.9062 8.17969 13.0234 8.16406L15.8438 13H16.5625L13.6641 8.07031C15.2969 7.74219 16.2734 6.57812 16.2734 4.96094V4.94531C16.2734 2.96094 14.8906 1.72656 12.6562 1.72656H9V13ZM9.61719 7.625V2.28906H12.6016C14.4922 2.28906 15.6406 3.28125 15.6406 4.95312V4.96875C15.6406 6.625 14.5 7.625 12.625 7.625H9.61719ZM20.7422 13.1328C22.4766 13.1328 23.7266 12.1953 24.0469 10.7422L24.0625 10.6719H23.4531L23.4297 10.7344C23.1328 11.8672 22.1641 12.5859 20.75 12.5859C18.9531 12.5859 17.7578 11.3203 17.7266 9.03906H24.1641V8.75781C24.1641 6.32031 22.7578 4.74219 20.6562 4.74219C18.5469 4.74219 17.1172 6.35156 17.1172 8.9375V8.94531C17.1172 11.5469 18.5391 13.1328 20.7422 13.1328ZM20.6484 5.28906C22.3047 5.28906 23.4844 6.51562 23.5625 8.53125H17.7266C17.8047 6.53906 19 5.28906 20.6484 5.28906ZM28 13.1328C29.3594 13.1328 30.5625 12.3828 30.9688 11.2891H30.9844V13H31.5938V7.50781C31.5938 5.80469 30.4844 4.74219 28.6953 4.74219C26.9609 4.74219 25.8125 5.64062 25.6172 7.125L25.6016 7.21875H26.1875L26.2031 7.13281C26.4062 5.95312 27.3281 5.28906 28.6953 5.28906C30.1328 5.28906 30.9844 6.14062 30.9844 7.55469V8.28125L28.1875 8.47656C26.3203 8.61719 25.3125 9.41406 25.3125 10.7969V10.8125C25.3125 12.1875 26.4141 13.1328 28 13.1328ZM25.9297 10.8125V10.7969C25.9297 9.72656 26.7578 9.09375 28.2734 8.97656L30.9844 8.78125V9.98438C30.9844 11.4375 29.6875 12.5859 28.0859 12.5859C26.8281 12.5859 25.9297 11.8594 25.9297 10.8125ZM36.5234 13.1328C38.2188 13.1328 39.4766 12.1172 39.75 10.6484L39.7578 10.5781H39.1562L39.1406 10.6484C38.875 11.8047 37.8672 12.5859 36.5234 12.5859C34.7188 12.5859 33.5391 11.1953 33.5391 8.9375V8.92969C33.5391 6.70312 34.7031 5.28906 36.5234 5.28906C37.8906 5.28906 38.8906 6.09375 39.1484 7.22656L39.1641 7.29688H39.7656L39.75 7.21875C39.5 5.8125 38.2422 4.74219 36.5234 4.74219C34.3438 4.74219 32.9297 6.36719 32.9297 8.92969V8.9375C32.9297 11.5078 34.3281 13.1328 36.5234 13.1328ZM43.2422 13.1328C43.4766 13.1328 43.7031 13.1094 43.8438 13.0703V12.5625C43.7344 12.5859 43.5547 12.6016 43.3516 12.6016C42.5469 12.6016 42.1719 12.2188 42.1719 11.2734V5.40625H43.8438V4.875H42.1719V2.67969H41.5469V4.875H40.3438V5.40625H41.5469V11.3047C41.5469 12.5547 42.1016 13.1328 43.2422 13.1328ZM49.5859 3.54688C50.2734 3.54688 50.8047 3.00781 50.8047 2.35938C50.8047 1.71094 50.2734 1.17188 49.5859 1.17188C48.8984 1.17188 48.3672 1.71094 48.3672 2.35938C48.3672 3.00781 48.8984 3.54688 49.5859 3.54688ZM48.4453 13H50.7266V4.625H48.4453V13ZM57.5391 13.1953C58.2578 13.1953 58.9219 13.0938 59.5234 12.8906L60.3984 14.0547H62.5938L61.0781 12.0391C62.2891 11.0312 62.9688 9.42188 62.9688 7.36719L62.9766 7.35156C62.9766 3.77344 60.8828 1.53125 57.5391 1.53125C54.2031 1.53125 52.1016 3.76562 52.1016 7.35156V7.36719C52.1016 10.9531 54.1875 13.1953 57.5391 13.1953ZM57.5391 11.1953C55.6875 11.1953 54.5078 9.72656 54.5078 7.36719V7.35156C54.5078 4.99219 55.6953 3.53125 57.5391 3.53125C59.3906 3.53125 60.5625 5 60.5625 7.35156V7.36719C60.5625 8.57031 60.2578 9.54688 59.7031 10.2188L59.0156 9.28906H56.8203L58.1953 11.125C57.9844 11.1719 57.7656 11.1953 57.5391 11.1953Z" fill="white"/>
</svg>
