<svg width="127" height="58" viewBox="0 0 127 58" fill="none" xmlns="http://www.w3.org/2000/svg">
<g clip-path="url(#clip0)">
<path d="M56.804 50.5915C56.804 54.6686 53.4933 58 49.3861 58C45.3038 58 41.9682 54.6935 41.9682 50.5915C41.9682 46.5143 45.2789 43.183 49.3861 43.183C53.4933 43.2079 56.804 46.5143 56.804 50.5915Z" fill="white"/>
<path d="M28.1531 36.3961L32.1358 32.4184C33.6543 30.6781 34.5753 28.4158 34.5753 25.9297C34.5753 20.4852 30.1445 16.06 24.6931 16.06C19.2417 16.06 14.8109 20.4852 14.8109 25.9297C14.8109 28.6644 15.9061 31.1256 17.6984 32.9156L10.7036 39.9014C7.11917 36.3215 4.90376 31.3991 4.90376 25.9546C4.90376 15.0656 13.7405 6.21519 24.6682 6.21519C35.5709 6.21519 44.4326 15.0407 44.4326 25.9546C44.4326 29.6091 43.4369 33.0399 41.6944 35.9734L45.3038 39.5285C47.8926 35.6254 49.3861 30.9516 49.3861 25.9297C49.3861 12.3061 38.334 1.26791 24.6931 1.26791C11.0521 1.26791 0 12.3061 0 25.9297C0 39.5534 11.0521 50.5915 24.6931 50.5915C29.7213 50.5915 34.401 49.075 38.3091 46.5144L28.1531 36.3961Z" fill="white"/>
<path d="M84.0112 41.6416C84.0112 42.0891 83.8618 42.4621 83.5631 42.7604C83.2644 43.0587 82.9159 43.2079 82.4927 43.2079H75.6225C75.3487 43.2079 75.05 43.1333 74.7513 42.9593C74.4526 42.7852 74.2783 42.5864 74.2036 42.3377L73.3822 40.6721C71.814 41.6665 70.2209 42.4621 68.6029 43.009C66.9849 43.5559 65.1927 43.8542 63.2013 43.8542C59.8408 43.8542 57.3018 42.9344 55.6092 41.1196C53.9165 39.3047 53.0702 36.6446 53.0702 33.189V14.7921C53.0702 14.3695 53.2195 14.0214 53.5431 13.7231C53.8667 13.4248 54.2152 13.2756 54.6384 13.2756H63.5498C63.9729 13.2756 64.3214 13.4248 64.645 13.7231C64.9686 14.0214 65.118 14.3695 65.118 14.7921V30.877C65.118 33.1642 65.7652 34.3077 67.1094 34.3077C67.3832 34.3077 67.7317 34.258 68.1797 34.1834C68.6029 34.1089 69.1007 33.9597 69.6733 33.7359H69.6235C70.0715 33.5371 70.4947 33.3382 70.893 33.189C71.2913 33.0399 71.6646 32.8658 72.0131 32.6918V14.7921C72.0131 14.3695 72.1625 14.0214 72.4861 13.7231C72.8097 13.4248 73.1582 13.2756 73.5813 13.2756H82.4927C82.9159 13.2756 83.2644 13.4248 83.5631 13.7231C83.8618 14.0214 84.0112 14.3695 84.0112 14.7921V41.6416Z" fill="white"/>
<path d="M87.7201 43.2079C87.3467 43.2079 87.0231 43.0587 86.7742 42.7355C86.5253 42.4124 86.4008 42.0643 86.4008 41.6417V14.0712C86.4008 13.6485 86.5253 13.3005 86.7742 12.9773C87.0231 12.6541 87.3218 12.5049 87.7201 12.5049H95.0633C95.2375 12.5049 95.4616 12.5547 95.7105 12.6292C95.9594 12.7287 96.2332 12.8281 96.4573 12.9773C96.7062 13.1265 96.9053 13.2756 97.0796 13.4745C97.2538 13.6734 97.3285 13.8723 97.3285 14.0712V41.6417C97.3285 42.0643 97.204 42.4124 96.9551 42.7355C96.7062 43.0587 96.4075 43.2079 96.059 43.2079H87.7201Z" fill="white"/>
<path d="M124.934 13.3253C125.357 13.3253 125.706 13.4745 126.004 13.7728C126.303 14.0712 126.452 14.4441 126.452 14.8916V21.6537L116.247 32.9902H125.457C125.88 32.9902 126.228 33.1393 126.552 33.4625C126.876 33.7857 127.025 34.1338 127.025 34.5564V41.6417C127.025 42.0892 126.876 42.4621 126.552 42.7604C126.228 43.0587 125.88 43.2079 125.457 43.2079H101.286C100.863 43.2079 100.515 43.0587 100.216 42.7604C99.9173 42.4621 99.7679 42.0892 99.7679 41.6417V35.1779L109.974 23.5182H102.008C101.585 23.5182 101.237 23.3691 100.938 23.0459C100.639 22.7227 100.49 22.3746 100.49 21.952V14.8916C100.49 14.4441 100.639 14.0712 100.938 13.7728C101.237 13.4745 101.585 13.3253 102.008 13.3253H124.934Z" fill="white"/>
<path d="M97.453 5.54393C97.453 8.6018 94.9637 11.0879 91.902 11.0879C88.8403 11.0879 86.351 8.6018 86.351 5.54393C86.351 2.48607 88.8403 0 91.902 0C94.9637 0 97.453 2.48607 97.453 5.54393Z" fill="white"/>
</g>
<defs>
<clipPath id="clip0">
<rect width="127" height="58" fill="white"/>
</clipPath>
</defs>
</svg>
