<svg width="284" height="61" viewBox="0 0 284 61" fill="none" xmlns="http://www.w3.org/2000/svg">
<g clip-path="url(#clip0)">
<path d="M202.96 10.53H197.21V49.91H202.96V10.53Z" fill="white"/>
<path fill-rule="evenodd" clip-rule="evenodd" d="M134.48 15.53C126.66 15.53 120.48 22.1 120.48 30.36C120.48 34.134 121.979 37.7535 124.648 40.4221C127.317 43.0908 130.936 44.59 134.71 44.59C138.484 44.59 142.103 43.0908 144.772 40.4221C147.441 37.7535 148.94 34.134 148.94 30.36C148.91 21.87 142.75 15.53 134.48 15.53ZM134.71 10.18C138.657 10.1939 142.512 11.3754 145.789 13.5757C149.066 15.776 151.618 18.8968 153.125 22.545C154.632 26.1931 155.025 30.2056 154.256 34.077C153.487 37.9484 151.59 41.5057 148.803 44.3009C146.016 47.0961 142.464 49.0041 138.595 49.7848C134.726 50.5655 130.713 50.1838 127.06 48.6879C123.407 47.192 120.279 44.6488 118.069 41.3785C115.859 38.1082 114.666 34.257 114.64 30.31C114.609 27.663 115.107 25.0365 116.104 22.5843C117.101 20.1321 118.577 17.9035 120.446 16.0289C122.315 14.1542 124.54 12.6714 126.989 11.6671C129.438 10.6628 132.063 10.1572 134.71 10.18Z" fill="white"/>
<path fill-rule="evenodd" clip-rule="evenodd" d="M13.46 15C9.86 15 6.72 17.49 7.16 21.23C7.26441 21.9934 7.5481 22.7212 7.98784 23.3538C8.42758 23.9865 9.01088 24.5061 9.69 24.87C10.4695 25.2806 11.2866 25.6154 12.13 25.87L16 27.25C18.81 28.25 21.71 29.38 22.94 30.54C23.9961 31.4888 24.8396 32.6501 25.4152 33.9479C25.9908 35.2456 26.2855 36.6504 26.28 38.07C26.28 45.5 20.28 50.47 13.28 50.47C6.28 50.47 0.18 45.56 0 38.36H5.55C6.27 43.28 9.38 45.47 13.28 45.47C16.9 45.47 20.63 43.18 20.63 38.92C20.648 37.8499 20.359 36.797 19.7972 35.8861C19.2354 34.9751 18.4243 34.2443 17.46 33.78C16.7319 33.4018 15.9724 33.0873 15.19 32.84C14.26 32.51 13.19 32.17 12.09 31.84C10.0417 31.2374 8.05334 30.4474 6.15 29.48C4.74496 28.67 3.57817 27.504 2.7671 26.0996C1.95604 24.6952 1.52935 23.1018 1.53 21.48C1.53 14.82 6.6 10 13.74 10C19.37 10 25.15 14.38 25.51 20.7H19.86C19.7112 19.1169 18.9684 17.6489 17.781 16.5913C16.5936 15.5338 15.0497 14.9652 13.46 15Z" fill="white"/>
<path fill-rule="evenodd" clip-rule="evenodd" d="M168.17 10.54H186.77V15.82H170.09V28.6H186.77V33.87H170.09V49.87H164.35V14.36C164.349 13.858 164.447 13.3607 164.638 12.8966C164.83 12.4325 165.111 12.0109 165.466 11.6559C165.821 11.3009 166.243 11.0196 166.707 10.8281C167.171 10.6366 167.668 10.5387 168.17 10.54Z" fill="white"/>
<path fill-rule="evenodd" clip-rule="evenodd" d="M80.38 19.71V49.91H74.6V14.17C74.6 13.1091 75.0214 12.0917 75.7716 11.3416C76.5217 10.5914 77.5391 10.17 78.6 10.17C79.2862 10.1461 79.9658 10.3105 80.5652 10.6455C81.1646 10.9804 81.6608 11.4731 82 12.07C87.71 21.32 98.2 38.8 99.34 40.72V10.53H105.09V46.27C105.09 47.3309 104.669 48.3483 103.918 49.0984C103.168 49.8486 102.151 50.27 101.09 50.27C100.405 50.2895 99.7266 50.1232 99.1281 49.7887C98.5295 49.4542 98.0326 48.964 97.69 48.37C92 39.12 81.52 21.63 80.38 19.71Z" fill="white"/>
<path fill-rule="evenodd" clip-rule="evenodd" d="M48.73 17.77L42.93 33.67H54.53L48.73 17.77ZM41 38.82L37 49.91H31L45.09 12.65C45.3787 11.9215 45.8796 11.2966 46.5277 10.8562C47.1759 10.4159 47.9414 10.1805 48.725 10.1805C49.5086 10.1805 50.2741 10.4159 50.9223 10.8562C51.5704 11.2966 52.0713 11.9215 52.36 12.65L66.5 49.91H60.5L56.43 38.81L41 38.82Z" fill="white"/>
<path d="M282.06 21.09C272.32 6.77 261.41 19.34 250.44 17.79C239.47 16.24 239.19 1.33 252.58 0.07C252.9 0.07 253.23 0.01 253.58 0C259.942 0.0721895 266.12 2.14937 271.233 5.93591C276.346 9.72246 280.135 15.0254 282.06 21.09Z" fill="white"/>
<path fill-rule="evenodd" clip-rule="evenodd" d="M282.33 21.94C283.084 24.6352 283.465 27.4213 283.46 30.22C283.458 35.9509 281.825 41.5629 278.753 46.4009C275.681 51.2389 271.297 55.1033 266.111 57.5431C260.925 59.9828 255.153 60.8972 249.467 60.1795C243.781 59.4619 238.417 57.1418 234 53.49C236.105 54.2713 238.334 54.6676 240.58 54.66C267.92 54.81 256.23 18.4 282.33 21.94Z" fill="white"/>
<path fill-rule="evenodd" clip-rule="evenodd" d="M242.2 51C238.41 53.32 232.4 52.63 228.2 46.91C227.313 45.6981 226.531 44.4136 225.86 43.07C223.966 39.0445 222.989 34.6488 223 30.2C222.999 28.9969 223.069 27.7948 223.21 26.6C229.8 35.48 237.39 35.21 242.21 38.1C243.305 38.7814 244.209 39.7307 244.836 40.8584C245.462 41.9861 245.791 43.2549 245.791 44.545C245.791 45.8351 245.462 47.1039 244.836 48.2316C244.209 49.3593 243.305 50.3086 242.21 50.99L242.2 51Z" fill="white"/>
</g>
<defs>
<clipPath id="clip0">
<rect width="283.46" height="60.45" fill="white"/>
</clipPath>
</defs>
</svg>
