<?xml version="1.0" encoding="utf-8"?>
<!-- Generator: Adobe Illustrator 24.0.2, SVG Export Plug-In . SVG Version: 6.00 Build 0)  -->
<svg version="1.1" id="Layer_1" xmlns="http://www.w3.org/2000/svg" xmlns:xlink="http://www.w3.org/1999/xlink" x="0px" y="0px"
	 viewBox="0 0 512 512" style="enable-background:new 0 0 512 512;" xml:space="preserve">
<style type="text/css">
	.st0{fill:#FFFFFF;}
</style>
<path class="st0" d="M483.9,200.4l-40.1-5.1c-3.3-10.2-7.4-20-12.1-29.3l24.8-31.9c10-12.9,8.9-31.1-2.6-42.2l-33.6-33.6
	c-11.2-11.6-29.4-12.7-42.3-2.7L346,80.3c-9.3-4.8-19.1-8.8-29.3-12.1l-5.1-40C309.7,12.1,296,0,279.9,0h-47.8
	c-16.1,0-29.8,12.1-31.7,28.1l-5.1,40.1c-10.2,3.3-20,7.4-29.3,12.1l-31.9-24.8c-12.9-10-31.1-8.9-42.2,2.6L58.3,91.8
	c-11.6,11.2-12.7,29.4-2.7,42.4L80.3,166c-4.8,9.3-8.8,19.1-12.1,29.3l-40,5.1C12.1,202.3,0,216,0,232.1v47.8
	c0,16.1,12.1,29.8,28.1,31.7l40.1,5.1c3.3,10.2,7.4,20,12.1,29.3l-24.8,31.9c-10,12.9-8.9,31.1,2.6,42.2l33.6,33.6
	c11.2,11.5,29.4,12.7,42.3,2.7l31.9-24.8c9.3,4.8,19.1,8.9,29.3,12.1l5.1,40c1.9,16.1,15.6,28.2,31.7,28.2h47.8
	c16.1,0,29.8-12.1,31.7-28.1l5.1-40.1c10.2-3.3,20-7.4,29.3-12.1l31.9,24.8c12.9,10,31.1,8.9,42.2-2.6l33.6-33.6
	c11.6-11.2,12.7-29.4,2.7-42.3L431.7,346c4.8-9.3,8.9-19.1,12.1-29.3l40-5.1c16.1-1.9,28.2-15.6,28.2-31.7v-47.8
	C512,216,499.9,202.3,483.9,200.4L483.9,200.4z M256,362.7c-58.8,0-106.7-47.9-106.7-106.7S197.2,149.3,256,149.3
	S362.7,197.2,362.7,256S314.8,362.7,256,362.7L256,362.7z"/>
</svg>
