<svg xmlns="http://www.w3.org/2000/svg" viewBox="0 0 293.01 146.61"><defs><style>.cls-1{fill:#fff;}.cls-1,.cls-2{fill-rule:evenodd;}.cls-2{fill:#001689;}</style></defs><title>shalina_logo</title><g id="Layer_2" data-name="Layer 2"><g id="Layer_1-2" data-name="Layer 1"><path class="cls-1" d="M69.7,26.39h0c-21.93,9.11-39.32,21-49.33,31.32-6.77,6.76-9.75,13.13-9.55,15.61-.2,2.52,2.79,8.9,9.55,15.69s16.61,14.46,29,21.42a202.13,202.13,0,0,0,97.12,25.36,202,202,0,0,0,76.81-15.51c21.92-9.1,39.31-21,49.31-31.27,6.77-6.79,9.77-13.17,9.56-15.69.21-2.48-2.78-8.85-9.56-15.61s-16.62-14.47-29-21.44A201.65,201.65,0,0,0,146.5,10.8h0A201.41,201.41,0,0,0,69.7,26.39"/><path class="cls-2" d="M44.33,83.68c.73.57,1.51,1.14,2.38,1.72A20.61,20.61,0,0,0,49.58,87,18,18,0,0,0,53,88.2a16.56,16.56,0,0,0,4,.47,12.91,12.91,0,0,0,3.16-.4,8.41,8.41,0,0,0,2.71-1.19,6.48,6.48,0,0,0,2-2.08,6.39,6.39,0,0,0,.77-3.24,6.32,6.32,0,0,0-.85-3.37,7.74,7.74,0,0,0-2.21-2.32,13.87,13.87,0,0,0-3.19-1.65c-1.18-.47-2.46-.93-3.79-1.38-1.63-.56-3.28-1.16-4.93-1.84a16.85,16.85,0,0,1-4.48-2.6,12.57,12.57,0,0,1-3.27-4.1,14.16,14.16,0,0,1-1.24-6.33A14.15,14.15,0,0,1,43,51.68,13.57,13.57,0,0,1,47,47a18.14,18.14,0,0,1,5.82-2.84,25.15,25.15,0,0,1,7-1,27.82,27.82,0,0,1,4.7.37,34.88,34.88,0,0,1,3.9.91,30.39,30.39,0,0,1,2.92,1.12,10.89,10.89,0,0,1,1.8,1.05,3.91,3.91,0,0,1,2.14,3.44,5.94,5.94,0,0,1-.8,2.48,12.54,12.54,0,0,1-2.27,3.09,23.8,23.8,0,0,0-5-2.89A15.45,15.45,0,0,0,58,51.63a9.16,9.16,0,0,0-2.64.92,5.82,5.82,0,0,0-2,1.77,4.92,4.92,0,0,0-.77,2.87,5.11,5.11,0,0,0,.77,2.8,7.38,7.38,0,0,0,2.07,2.06,15.08,15.08,0,0,0,3,1.57c1.14.46,2.33.93,3.54,1.37q2.48.95,5,2a17.65,17.65,0,0,1,4.59,2.73A13,13,0,0,1,75,73.85a13.3,13.3,0,0,1,1.3,6.24,16.92,16.92,0,0,1-1.42,7.16,14.43,14.43,0,0,1-3.94,5.24,16.56,16.56,0,0,1-6.09,3.21,26.61,26.61,0,0,1-7.76,1.07,28.87,28.87,0,0,1-8.88-1.11,25.75,25.75,0,0,1-5-2,6.42,6.42,0,0,1-1.53-1.45,3.23,3.23,0,0,1-.6-1.93,6.44,6.44,0,0,1,1-3.12,28.49,28.49,0,0,1,2.24-3.46"/><path class="cls-2" d="M102.09,74.34c0-1.13,0-2.16-.1-3.14a7,7,0,0,0-.62-2.48,3.32,3.32,0,0,0-1.61-1.61,6.77,6.77,0,0,0-3.1-.58,9.39,9.39,0,0,0-4.86,1.19,3.41,3.41,0,0,0-2,3V95.48H79.35v-54a3.88,3.88,0,0,1,1.16-.2c.75-.07,1.55-.11,2.36-.11a12.82,12.82,0,0,1,2.46.24,6.52,6.52,0,0,1,2.22.87,4.76,4.76,0,0,1,1.61,1.84,6.86,6.86,0,0,1,.61,3.1V62.47A12.85,12.85,0,0,1,91.3,61a12.33,12.33,0,0,1,2.22-1.41,13.27,13.27,0,0,1,3-1,18.39,18.39,0,0,1,3.94-.4c3.62,0,6.3.72,8.05,2.14A10,10,0,0,1,111.89,66a24.79,24.79,0,0,1,.5,3.84c.09,1.38.13,2.72.13,4.07V95.48H102.09Z"/><path class="cls-2" d="M162.13,95.94a5.94,5.94,0,0,1-1.46.23c-.7,0-1.49.07-2.35.07a10.68,10.68,0,0,1-2.49-.27,4.85,4.85,0,0,1-3.56-3,7.74,7.74,0,0,1-.53-3.12V41.49a3.53,3.53,0,0,1,1.14-.2c.76-.07,1.56-.11,2.37-.11a12.56,12.56,0,0,1,2.45.24,6.49,6.49,0,0,1,2.23.87,4.81,4.81,0,0,1,1.6,1.84,6.61,6.61,0,0,1,.6,3.1Z"/><path class="cls-2" d="M177.05,95.94a5.42,5.42,0,0,1-1.39.24c-.71,0-1.48.06-2.3.06a12.27,12.27,0,0,1-2.75-.27,4.66,4.66,0,0,1-2.1-1,4.75,4.75,0,0,1-1.39-2,8.33,8.33,0,0,1-.49-3.12V59.25c0-.07.38-.11,1.15-.17a20.22,20.22,0,0,1,2.36-.14,14.74,14.74,0,0,1,2.47.23,6.92,6.92,0,0,1,2.21.88,5.11,5.11,0,0,1,1.61,1.85,6.71,6.71,0,0,1,.62,3.09ZM177.12,47h0a5.21,5.21,0,0,1-1.66,4,5.88,5.88,0,0,1-7.91,0,5.28,5.28,0,0,1-1.61-4,5.36,5.36,0,0,1,1.61-4,5.77,5.77,0,0,1,7.91,0,5.29,5.29,0,0,1,1.66,4"/><path class="cls-2" d="M192.55,95.48H182.16V59.25a5.91,5.91,0,0,1,.9-.14c.3,0,.66-.11,1.06-.13s.89,0,1.45,0a9.18,9.18,0,0,1,4.22.89A4.11,4.11,0,0,1,192,62.94a12.33,12.33,0,0,1,4.05-3.25,14.83,14.83,0,0,1,7.25-1.5c3.65,0,6.33.71,8.07,2.14A9.79,9.79,0,0,1,214.77,66a26.07,26.07,0,0,1,.5,3.84c.08,1.38.12,2.73.12,4.07V95.48H205V74.34c0-1.13,0-2.16-.11-3.14a7.45,7.45,0,0,0-.62-2.48,3.38,3.38,0,0,0-1.62-1.61,6.88,6.88,0,0,0-3.13-.58,9.5,9.5,0,0,0-4.89,1.19,3.44,3.44,0,0,0-2,3Z"/><path class="cls-2" d="M240.38,77.71h-1.07a7.82,7.82,0,0,0-1.07.08c-1.28.11-2.54.26-3.77.45a11,11,0,0,0-3.34,1.07,7.12,7.12,0,0,0-2.39,2,5.1,5.1,0,0,0-.92,3.13,5.64,5.64,0,0,0,1.23,3.66,5.11,5.11,0,0,0,4.13,1.49,9.84,9.84,0,0,0,2.76-.39,9,9,0,0,0,2.3-1,6.3,6.3,0,0,0,1.58-1.34,2.19,2.19,0,0,0,.56-1.34Zm9.81,8.87h0c0,4,.58,7,1.75,8.82a16.26,16.26,0,0,1-2.56.78,14.34,14.34,0,0,1-2.49.21,6.91,6.91,0,0,1-4.18-1.06,4.83,4.83,0,0,1-1.8-3.08,13.63,13.63,0,0,1-4.43,3,16.74,16.74,0,0,1-6.74,1.22,15.46,15.46,0,0,1-4.13-.57A11.17,11.17,0,0,1,221.84,94a9.68,9.68,0,0,1-2.74-3.48,11.79,11.79,0,0,1-1.07-5.3,10.11,10.11,0,0,1,1.87-6.35,13.36,13.36,0,0,1,4.7-3.85,21.51,21.51,0,0,1,6.14-2,55.92,55.92,0,0,1,6-.67c.61-.06,1.22-.1,1.82-.1h1.62V71c0-2-.52-3.35-1.55-4.2a8.44,8.44,0,0,0-5.09-1.23,14.81,14.81,0,0,0-5.87,1.09,48.14,48.14,0,0,0-5,2.43A11.29,11.29,0,0,1,221,66.18a7.34,7.34,0,0,1-.64-2.33,2.71,2.71,0,0,1,1.19-2.07A11.49,11.49,0,0,1,224.76,60a25.39,25.39,0,0,1,4.75-1.32,32,32,0,0,1,5.66-.5,24.63,24.63,0,0,1,7,.86,10.72,10.72,0,0,1,4.68,2.61,9.71,9.71,0,0,1,2.57,4.4,22.53,22.53,0,0,1,.77,6.16Z"/><path class="cls-2" d="M137.24,77.71h-1.09a7.8,7.8,0,0,0-1.06.08c-1.28.11-2.56.26-3.8.45A11.26,11.26,0,0,0,128,79.31a7.28,7.28,0,0,0-2.38,2,5,5,0,0,0-.91,3.13,5.69,5.69,0,0,0,1.22,3.66A5.11,5.11,0,0,0,130,89.59a9.77,9.77,0,0,0,2.75-.39,9.36,9.36,0,0,0,2.31-1,5.9,5.9,0,0,0,1.57-1.34,2.23,2.23,0,0,0,.58-1.34ZM147,86.58h0c0,4,.6,7,1.76,8.82a16.39,16.39,0,0,1-2.54.78,14.46,14.46,0,0,1-2.5.21,6.86,6.86,0,0,1-4.17-1.06,4.83,4.83,0,0,1-1.8-3.08,14.12,14.12,0,0,1-4.44,3,16.67,16.67,0,0,1-6.74,1.22,15.46,15.46,0,0,1-4.13-.57A11.12,11.12,0,0,1,118.7,94,10,10,0,0,1,116,90.56a11.93,11.93,0,0,1-1.07-5.3,10.11,10.11,0,0,1,1.88-6.35,13.33,13.33,0,0,1,4.69-3.85,21.55,21.55,0,0,1,6.13-2,56.36,56.36,0,0,1,6-.67c.6-.06,1.21-.1,1.8-.1h1.64V71c0-2-.52-3.35-1.56-4.2s-2.74-1.23-5.08-1.23a14.81,14.81,0,0,0-5.87,1.09,47.34,47.34,0,0,0-5,2.43,10.91,10.91,0,0,1-1.71-2.87,6.66,6.66,0,0,1-.68-2.33,2.85,2.85,0,0,1,1.2-2.07A11.57,11.57,0,0,1,121.61,60a25.28,25.28,0,0,1,4.74-1.32,32.19,32.19,0,0,1,5.68-.5,24.78,24.78,0,0,1,7,.86,10.77,10.77,0,0,1,4.68,2.61,10,10,0,0,1,2.56,4.4A22.19,22.19,0,0,1,147,72.2Z"/><path class="cls-2" d="M65.54,130.25c-23.12-9.61-41.5-22-52.92-33.71C5.09,88.65.2,81.26,0,73.32c.21-7.94,5.1-15.26,12.62-23.15S30.93,34.26,44.07,26.86A212.37,212.37,0,0,1,146.5,0a212.19,212.19,0,0,1,81,16.42c23.1,9.64,41.47,22,52.91,33.75,7.5,7.89,12.4,15.21,12.63,23.15-.22,7.94-5.12,15.33-12.63,23.22s-18.31,15.91-31.46,23.3A212.84,212.84,0,0,1,146.5,146.61a212.71,212.71,0,0,1-81-16.36M69.7,26.39h0c-21.93,9.11-39.32,21-49.33,31.32-6.77,6.76-9.75,13.13-9.55,15.61-.2,2.52,2.79,8.9,9.55,15.69s16.61,14.46,29,21.42a202.13,202.13,0,0,0,97.12,25.36,202,202,0,0,0,76.81-15.51c21.92-9.1,39.31-21,49.31-31.27,6.77-6.79,9.77-13.17,9.56-15.69.21-2.48-2.78-8.85-9.56-15.61s-16.62-14.47-29-21.44A201.65,201.65,0,0,0,146.5,10.8h0A201.41,201.41,0,0,0,69.7,26.39"/></g></g></svg>