<svg width="82" height="82" viewBox="0 0 82 82" fill="none" xmlns="http://www.w3.org/2000/svg">
<path d="M63.96 23.7799H52.48V26.6499H63.96C65.5426 26.6499 66.83 27.9373 66.83 29.5199V75.4399C66.83 77.0225 65.5426 78.3099 63.96 78.3099H18.04C16.4656 78.3099 15.17 77.0225 15.17 75.4399V29.5199C15.17 27.9455 16.4574 26.6499 18.04 26.6499H29.52V23.7799H18.04C14.8666 23.7799 12.3 26.3465 12.3 29.5199V75.4399C12.3 78.6133 14.8666 81.1799 18.04 81.1799H63.96C67.1334 81.1799 69.7 78.6133 69.7 75.4399V29.5199C69.7 26.3465 67.1334 23.7799 63.96 23.7799ZM30.545 14.7599L39.565 5.72355V51.0449C39.565 51.8321 40.2128 52.4799 41 52.4799C41.7872 52.4799 42.435 51.8321 42.435 51.0449V5.72355L51.455 14.7435C51.742 15.0305 52.1028 15.1535 52.48 15.1535C52.8572 15.1535 53.218 15.0141 53.505 14.7435C54.0626 14.1859 54.0626 13.2757 53.505 12.7181L42.025 1.23815C41.4674 0.680546 40.5572 0.680546 39.9996 1.23815L28.5196 12.7181C27.962 13.2757 27.962 14.1859 28.5196 14.7435C29.069 15.3175 29.971 15.3175 30.545 14.7599Z" fill="white"/>
</svg>
