<?xml version="1.0" encoding="utf-8"?>
<!-- Generator: Adobe Illustrator 24.0.2, SVG Export Plug-In . SVG Version: 6.00 Build 0)  -->
<svg version="1.1" id="bold" xmlns="http://www.w3.org/2000/svg" xmlns:xlink="http://www.w3.org/1999/xlink" x="0px" y="0px"
	 viewBox="0 0 512 512" style="enable-background:new 0 0 512 512;" xml:space="preserve">
<style type="text/css">
	.st0{fill:#FFFFFF;}
</style>
<path class="st0" d="M410.7,104.9H101.3c-32.4,0-58.7,20.9-58.7,46.6v313.8c0,25.7,26.3,46.6,58.7,46.6h309.3
	c32.4,0,58.7-20.9,58.7-46.6V151.5C469.3,125.8,443,104.9,410.7,104.9z M192,448h-69.3c-8.8,0-16-7.2-16-16v-53.3H192V448z
	 M192,346.7h-85.3V272H192V346.7z M192,240h-85.3v-53.3c0-8.8,7.2-16,16-16H192V240z M405.3,432c0,8.8-7.2,16-16,16H224v-69.3h181.3
	V432z M405.3,346.7H224V272h181.3V346.7z M405.3,240H224v-69.3h165.3c8.8,0,16,7.2,16,16V240z"/>
</svg>
